<?xml version="1.0" encoding="utf-8" standalone="no"?>
<!DOCTYPE svg PUBLIC "-//W3C//DTD SVG 1.1//EN"
  "http://www.w3.org/Graphics/SVG/1.1/DTD/svg11.dtd">
<svg xmlns:xlink="http://www.w3.org/1999/xlink" width="576pt" height="432pt" viewBox="0 0 576 432" xmlns="http://www.w3.org/2000/svg" version="1.1">
 <metadata>
  <rdf:RDF xmlns:dc="http://purl.org/dc/elements/1.1/" xmlns:cc="http://creativecommons.org/ns#" xmlns:rdf="http://www.w3.org/1999/02/22-rdf-syntax-ns#">
   <cc:Work>
    <dc:type rdf:resource="http://purl.org/dc/dcmitype/StillImage"/>
    <dc:date>2025-05-26T16:57:46.874820</dc:date>
    <dc:format>image/svg+xml</dc:format>
    <dc:creator>
     <cc:Agent>
      <dc:title>Matplotlib v3.8.3, https://matplotlib.org/</dc:title>
     </cc:Agent>
    </dc:creator>
   </cc:Work>
  </rdf:RDF>
 </metadata>
 <defs>
  <style type="text/css">*{stroke-linejoin: round; stroke-linecap: butt}</style>
 </defs>
 <g id="figure_1">
  <g id="patch_1">
   <path d="M 0 432 
L 576 432 
L 576 0 
L 0 0 
z
" style="fill: #ffffff"/>
  </g>
  <g id="axes_1">
   <g id="patch_2">
    <path d="M 66.335492 390.04 
L 565.2 390.04 
L 565.2 26.16 
L 66.335492 26.16 
z
" style="fill: #ffffff"/>
   </g>
   <g id="matplotlib.axis_1">
    <g id="xtick_1">
     <g id="line2d_1">
      <path d="M 89.011152 390.04 
L 89.011152 26.16 
" clip-path="url(#p19287695cc)" style="fill: none; stroke: #b0b0b0; stroke-width: 0.8; stroke-linecap: square"/>
     </g>
     <g id="line2d_2">
      <defs>
       <path id="m577d98fdd9" d="M 0 0 
L 0 3.5 
" style="stroke: #000000; stroke-width: 0.8"/>
      </defs>
      <g>
       <use xlink:href="#m577d98fdd9" x="89.011152" y="390.04" style="stroke: #000000; stroke-width: 0.8"/>
      </g>
     </g>
     <g id="text_1">
      <!-- 4 -->
      <g transform="translate(85.829902 404.638438) scale(0.1 -0.1)">
       <defs>
        <path id="DejaVuSans-34" d="M 2419 4116 
L 825 1625 
L 2419 1625 
L 2419 4116 
z
M 2253 4666 
L 3047 4666 
L 3047 1625 
L 3713 1625 
L 3713 1100 
L 3047 1100 
L 3047 0 
L 2419 0 
L 2419 1100 
L 313 1100 
L 313 1709 
L 2253 4666 
z
" transform="scale(0.015625)"/>
       </defs>
       <use xlink:href="#DejaVuSans-34"/>
      </g>
     </g>
    </g>
    <g id="xtick_2">
     <g id="line2d_3">
      <path d="M 164.596683 390.04 
L 164.596683 26.16 
" clip-path="url(#p19287695cc)" style="fill: none; stroke: #b0b0b0; stroke-width: 0.8; stroke-linecap: square"/>
     </g>
     <g id="line2d_4">
      <g>
       <use xlink:href="#m577d98fdd9" x="164.596683" y="390.04" style="stroke: #000000; stroke-width: 0.8"/>
      </g>
     </g>
     <g id="text_2">
      <!-- 5 -->
      <g transform="translate(161.415433 404.638438) scale(0.1 -0.1)">
       <defs>
        <path id="DejaVuSans-35" d="M 691 4666 
L 3169 4666 
L 3169 4134 
L 1269 4134 
L 1269 2991 
Q 1406 3038 1543 3061 
Q 1681 3084 1819 3084 
Q 2600 3084 3056 2656 
Q 3513 2228 3513 1497 
Q 3513 744 3044 326 
Q 2575 -91 1722 -91 
Q 1428 -91 1123 -41 
Q 819 9 494 109 
L 494 744 
Q 775 591 1075 516 
Q 1375 441 1709 441 
Q 2250 441 2565 725 
Q 2881 1009 2881 1497 
Q 2881 1984 2565 2268 
Q 2250 2553 1709 2553 
Q 1456 2553 1204 2497 
Q 953 2441 691 2322 
L 691 4666 
z
" transform="scale(0.015625)"/>
       </defs>
       <use xlink:href="#DejaVuSans-35"/>
      </g>
     </g>
    </g>
    <g id="xtick_3">
     <g id="line2d_5">
      <path d="M 240.182215 390.04 
L 240.182215 26.16 
" clip-path="url(#p19287695cc)" style="fill: none; stroke: #b0b0b0; stroke-width: 0.8; stroke-linecap: square"/>
     </g>
     <g id="line2d_6">
      <g>
       <use xlink:href="#m577d98fdd9" x="240.182215" y="390.04" style="stroke: #000000; stroke-width: 0.8"/>
      </g>
     </g>
     <g id="text_3">
      <!-- 6 -->
      <g transform="translate(237.000965 404.638438) scale(0.1 -0.1)">
       <defs>
        <path id="DejaVuSans-36" d="M 2113 2584 
Q 1688 2584 1439 2293 
Q 1191 2003 1191 1497 
Q 1191 994 1439 701 
Q 1688 409 2113 409 
Q 2538 409 2786 701 
Q 3034 994 3034 1497 
Q 3034 2003 2786 2293 
Q 2538 2584 2113 2584 
z
M 3366 4563 
L 3366 3988 
Q 3128 4100 2886 4159 
Q 2644 4219 2406 4219 
Q 1781 4219 1451 3797 
Q 1122 3375 1075 2522 
Q 1259 2794 1537 2939 
Q 1816 3084 2150 3084 
Q 2853 3084 3261 2657 
Q 3669 2231 3669 1497 
Q 3669 778 3244 343 
Q 2819 -91 2113 -91 
Q 1303 -91 875 529 
Q 447 1150 447 2328 
Q 447 3434 972 4092 
Q 1497 4750 2381 4750 
Q 2619 4750 2861 4703 
Q 3103 4656 3366 4563 
z
" transform="scale(0.015625)"/>
       </defs>
       <use xlink:href="#DejaVuSans-36"/>
      </g>
     </g>
    </g>
    <g id="xtick_4">
     <g id="line2d_7">
      <path d="M 315.767746 390.04 
L 315.767746 26.16 
" clip-path="url(#p19287695cc)" style="fill: none; stroke: #b0b0b0; stroke-width: 0.8; stroke-linecap: square"/>
     </g>
     <g id="line2d_8">
      <g>
       <use xlink:href="#m577d98fdd9" x="315.767746" y="390.04" style="stroke: #000000; stroke-width: 0.8"/>
      </g>
     </g>
     <g id="text_4">
      <!-- 7 -->
      <g transform="translate(312.586496 404.638438) scale(0.1 -0.1)">
       <defs>
        <path id="DejaVuSans-37" d="M 525 4666 
L 3525 4666 
L 3525 4397 
L 1831 0 
L 1172 0 
L 2766 4134 
L 525 4134 
L 525 4666 
z
" transform="scale(0.015625)"/>
       </defs>
       <use xlink:href="#DejaVuSans-37"/>
      </g>
     </g>
    </g>
    <g id="xtick_5">
     <g id="line2d_9">
      <path d="M 391.353278 390.04 
L 391.353278 26.16 
" clip-path="url(#p19287695cc)" style="fill: none; stroke: #b0b0b0; stroke-width: 0.8; stroke-linecap: square"/>
     </g>
     <g id="line2d_10">
      <g>
       <use xlink:href="#m577d98fdd9" x="391.353278" y="390.04" style="stroke: #000000; stroke-width: 0.8"/>
      </g>
     </g>
     <g id="text_5">
      <!-- 8 -->
      <g transform="translate(388.172028 404.638438) scale(0.1 -0.1)">
       <defs>
        <path id="DejaVuSans-38" d="M 2034 2216 
Q 1584 2216 1326 1975 
Q 1069 1734 1069 1313 
Q 1069 891 1326 650 
Q 1584 409 2034 409 
Q 2484 409 2743 651 
Q 3003 894 3003 1313 
Q 3003 1734 2745 1975 
Q 2488 2216 2034 2216 
z
M 1403 2484 
Q 997 2584 770 2862 
Q 544 3141 544 3541 
Q 544 4100 942 4425 
Q 1341 4750 2034 4750 
Q 2731 4750 3128 4425 
Q 3525 4100 3525 3541 
Q 3525 3141 3298 2862 
Q 3072 2584 2669 2484 
Q 3125 2378 3379 2068 
Q 3634 1759 3634 1313 
Q 3634 634 3220 271 
Q 2806 -91 2034 -91 
Q 1263 -91 848 271 
Q 434 634 434 1313 
Q 434 1759 690 2068 
Q 947 2378 1403 2484 
z
M 1172 3481 
Q 1172 3119 1398 2916 
Q 1625 2713 2034 2713 
Q 2441 2713 2670 2916 
Q 2900 3119 2900 3481 
Q 2900 3844 2670 4047 
Q 2441 4250 2034 4250 
Q 1625 4250 1398 4047 
Q 1172 3844 1172 3481 
z
" transform="scale(0.015625)"/>
       </defs>
       <use xlink:href="#DejaVuSans-38"/>
      </g>
     </g>
    </g>
    <g id="xtick_6">
     <g id="line2d_11">
      <path d="M 466.938809 390.04 
L 466.938809 26.16 
" clip-path="url(#p19287695cc)" style="fill: none; stroke: #b0b0b0; stroke-width: 0.8; stroke-linecap: square"/>
     </g>
     <g id="line2d_12">
      <g>
       <use xlink:href="#m577d98fdd9" x="466.938809" y="390.04" style="stroke: #000000; stroke-width: 0.8"/>
      </g>
     </g>
     <g id="text_6">
      <!-- 9 -->
      <g transform="translate(463.757559 404.638438) scale(0.1 -0.1)">
       <defs>
        <path id="DejaVuSans-39" d="M 703 97 
L 703 672 
Q 941 559 1184 500 
Q 1428 441 1663 441 
Q 2288 441 2617 861 
Q 2947 1281 2994 2138 
Q 2813 1869 2534 1725 
Q 2256 1581 1919 1581 
Q 1219 1581 811 2004 
Q 403 2428 403 3163 
Q 403 3881 828 4315 
Q 1253 4750 1959 4750 
Q 2769 4750 3195 4129 
Q 3622 3509 3622 2328 
Q 3622 1225 3098 567 
Q 2575 -91 1691 -91 
Q 1453 -91 1209 -44 
Q 966 3 703 97 
z
M 1959 2075 
Q 2384 2075 2632 2365 
Q 2881 2656 2881 3163 
Q 2881 3666 2632 3958 
Q 2384 4250 1959 4250 
Q 1534 4250 1286 3958 
Q 1038 3666 1038 3163 
Q 1038 2656 1286 2365 
Q 1534 2075 1959 2075 
z
" transform="scale(0.015625)"/>
       </defs>
       <use xlink:href="#DejaVuSans-39"/>
      </g>
     </g>
    </g>
    <g id="xtick_7">
     <g id="line2d_13">
      <path d="M 542.524341 390.04 
L 542.524341 26.16 
" clip-path="url(#p19287695cc)" style="fill: none; stroke: #b0b0b0; stroke-width: 0.8; stroke-linecap: square"/>
     </g>
     <g id="line2d_14">
      <g>
       <use xlink:href="#m577d98fdd9" x="542.524341" y="390.04" style="stroke: #000000; stroke-width: 0.8"/>
      </g>
     </g>
     <g id="text_7">
      <!-- 10 -->
      <g transform="translate(536.161841 404.638438) scale(0.1 -0.1)">
       <defs>
        <path id="DejaVuSans-31" d="M 794 531 
L 1825 531 
L 1825 4091 
L 703 3866 
L 703 4441 
L 1819 4666 
L 2450 4666 
L 2450 531 
L 3481 531 
L 3481 0 
L 794 0 
L 794 531 
z
" transform="scale(0.015625)"/>
        <path id="DejaVuSans-30" d="M 2034 4250 
Q 1547 4250 1301 3770 
Q 1056 3291 1056 2328 
Q 1056 1369 1301 889 
Q 1547 409 2034 409 
Q 2525 409 2770 889 
Q 3016 1369 3016 2328 
Q 3016 3291 2770 3770 
Q 2525 4250 2034 4250 
z
M 2034 4750 
Q 2819 4750 3233 4129 
Q 3647 3509 3647 2328 
Q 3647 1150 3233 529 
Q 2819 -91 2034 -91 
Q 1250 -91 836 529 
Q 422 1150 422 2328 
Q 422 3509 836 4129 
Q 1250 4750 2034 4750 
z
" transform="scale(0.015625)"/>
       </defs>
       <use xlink:href="#DejaVuSans-31"/>
       <use xlink:href="#DejaVuSans-30" x="63.623047"/>
      </g>
     </g>
    </g>
    <g id="text_8">
     <!-- k -->
     <g transform="translate(312.872434 418.316562) scale(0.1 -0.1)">
      <defs>
       <path id="DejaVuSans-6b" d="M 581 4863 
L 1159 4863 
L 1159 1991 
L 2875 3500 
L 3609 3500 
L 1753 1863 
L 3688 0 
L 2938 0 
L 1159 1709 
L 1159 0 
L 581 0 
L 581 4863 
z
" transform="scale(0.015625)"/>
      </defs>
      <use xlink:href="#DejaVuSans-6b"/>
     </g>
    </g>
   </g>
   <g id="matplotlib.axis_2">
    <g id="ytick_1">
     <g id="line2d_15">
      <path d="M 66.335492 304.474935 
L 565.2 304.474935 
" clip-path="url(#p19287695cc)" style="fill: none; stroke: #b0b0b0; stroke-width: 0.8; stroke-linecap: square"/>
     </g>
     <g id="line2d_16">
      <defs>
       <path id="m2f6cca463e" d="M 0 0 
L -3.5 0 
" style="stroke: #000000; stroke-width: 0.8"/>
      </defs>
      <g>
       <use xlink:href="#m2f6cca463e" x="66.335492" y="304.474935" style="stroke: #000000; stroke-width: 0.8"/>
      </g>
     </g>
     <g id="text_9">
      <!-- $\mathdefault{10^{3}}$ -->
      <g transform="translate(41.735492 308.274154) scale(0.1 -0.1)">
       <defs>
        <path id="DejaVuSans-33" d="M 2597 2516 
Q 3050 2419 3304 2112 
Q 3559 1806 3559 1356 
Q 3559 666 3084 287 
Q 2609 -91 1734 -91 
Q 1441 -91 1130 -33 
Q 819 25 488 141 
L 488 750 
Q 750 597 1062 519 
Q 1375 441 1716 441 
Q 2309 441 2620 675 
Q 2931 909 2931 1356 
Q 2931 1769 2642 2001 
Q 2353 2234 1838 2234 
L 1294 2234 
L 1294 2753 
L 1863 2753 
Q 2328 2753 2575 2939 
Q 2822 3125 2822 3475 
Q 2822 3834 2567 4026 
Q 2313 4219 1838 4219 
Q 1578 4219 1281 4162 
Q 984 4106 628 3988 
L 628 4550 
Q 988 4650 1302 4700 
Q 1616 4750 1894 4750 
Q 2613 4750 3031 4423 
Q 3450 4097 3450 3541 
Q 3450 3153 3228 2886 
Q 3006 2619 2597 2516 
z
" transform="scale(0.015625)"/>
       </defs>
       <use xlink:href="#DejaVuSans-31" transform="translate(0 0.765625)"/>
       <use xlink:href="#DejaVuSans-30" transform="translate(63.623047 0.765625)"/>
       <use xlink:href="#DejaVuSans-33" transform="translate(128.203125 39.046875) scale(0.7)"/>
      </g>
     </g>
    </g>
    <g id="ytick_2">
     <g id="line2d_17">
      <defs>
       <path id="ma82d46a6f8" d="M 0 0 
L -2 0 
" style="stroke: #000000; stroke-width: 0.6"/>
      </defs>
      <g>
       <use xlink:href="#ma82d46a6f8" x="66.335492" y="368.162292" style="stroke: #000000; stroke-width: 0.6"/>
      </g>
     </g>
    </g>
    <g id="ytick_3">
     <g id="line2d_18">
      <g>
       <use xlink:href="#ma82d46a6f8" x="66.335492" y="344.319121" style="stroke: #000000; stroke-width: 0.6"/>
      </g>
     </g>
    </g>
    <g id="ytick_4">
     <g id="line2d_19">
      <g>
       <use xlink:href="#ma82d46a6f8" x="66.335492" y="323.287955" style="stroke: #000000; stroke-width: 0.6"/>
      </g>
     </g>
    </g>
    <g id="ytick_5">
     <g id="line2d_20">
      <g>
       <use xlink:href="#ma82d46a6f8" x="66.335492" y="180.707587" style="stroke: #000000; stroke-width: 0.6"/>
      </g>
     </g>
     <g id="text_10">
      <!-- $\mathdefault{2\times10^{3}}$ -->
      <g transform="translate(24.735492 184.506806) scale(0.1 -0.1)">
       <defs>
        <path id="DejaVuSans-32" d="M 1228 531 
L 3431 531 
L 3431 0 
L 469 0 
L 469 531 
Q 828 903 1448 1529 
Q 2069 2156 2228 2338 
Q 2531 2678 2651 2914 
Q 2772 3150 2772 3378 
Q 2772 3750 2511 3984 
Q 2250 4219 1831 4219 
Q 1534 4219 1204 4116 
Q 875 4013 500 3803 
L 500 4441 
Q 881 4594 1212 4672 
Q 1544 4750 1819 4750 
Q 2544 4750 2975 4387 
Q 3406 4025 3406 3419 
Q 3406 3131 3298 2873 
Q 3191 2616 2906 2266 
Q 2828 2175 2409 1742 
Q 1991 1309 1228 531 
z
" transform="scale(0.015625)"/>
        <path id="DejaVuSans-d7" d="M 4488 3438 
L 3059 2003 
L 4488 575 
L 4116 197 
L 2681 1631 
L 1247 197 
L 878 575 
L 2303 2003 
L 878 3438 
L 1247 3816 
L 2681 2381 
L 4116 3816 
L 4488 3438 
z
" transform="scale(0.015625)"/>
       </defs>
       <use xlink:href="#DejaVuSans-32" transform="translate(0 0.765625)"/>
       <use xlink:href="#DejaVuSans-d7" transform="translate(83.105469 0.765625)"/>
       <use xlink:href="#DejaVuSans-31" transform="translate(186.376953 0.765625)"/>
       <use xlink:href="#DejaVuSans-30" transform="translate(250 0.765625)"/>
       <use xlink:href="#DejaVuSans-33" transform="translate(314.580078 39.046875) scale(0.7)"/>
      </g>
     </g>
    </g>
    <g id="ytick_6">
     <g id="line2d_21">
      <g>
       <use xlink:href="#ma82d46a6f8" x="66.335492" y="108.30833" style="stroke: #000000; stroke-width: 0.6"/>
      </g>
     </g>
     <g id="text_11">
      <!-- $\mathdefault{3\times10^{3}}$ -->
      <g transform="translate(24.735492 112.107549) scale(0.1 -0.1)">
       <use xlink:href="#DejaVuSans-33" transform="translate(0 0.765625)"/>
       <use xlink:href="#DejaVuSans-d7" transform="translate(83.105469 0.765625)"/>
       <use xlink:href="#DejaVuSans-31" transform="translate(186.376953 0.765625)"/>
       <use xlink:href="#DejaVuSans-30" transform="translate(250 0.765625)"/>
       <use xlink:href="#DejaVuSans-33" transform="translate(314.580078 39.046875) scale(0.7)"/>
      </g>
     </g>
    </g>
    <g id="ytick_7">
     <g id="line2d_22">
      <g>
       <use xlink:href="#ma82d46a6f8" x="66.335492" y="56.94024" style="stroke: #000000; stroke-width: 0.6"/>
      </g>
     </g>
     <g id="text_12">
      <!-- $\mathdefault{4\times10^{3}}$ -->
      <g transform="translate(24.735492 60.739459) scale(0.1 -0.1)">
       <use xlink:href="#DejaVuSans-34" transform="translate(0 0.765625)"/>
       <use xlink:href="#DejaVuSans-d7" transform="translate(83.105469 0.765625)"/>
       <use xlink:href="#DejaVuSans-31" transform="translate(186.376953 0.765625)"/>
       <use xlink:href="#DejaVuSans-30" transform="translate(250 0.765625)"/>
       <use xlink:href="#DejaVuSans-33" transform="translate(314.580078 39.046875) scale(0.7)"/>
      </g>
     </g>
    </g>
    <g id="text_13">
     <!-- Runtime (ms) -->
     <g transform="translate(18.655805 241.948437) rotate(-90) scale(0.1 -0.1)">
      <defs>
       <path id="DejaVuSans-52" d="M 2841 2188 
Q 3044 2119 3236 1894 
Q 3428 1669 3622 1275 
L 4263 0 
L 3584 0 
L 2988 1197 
Q 2756 1666 2539 1819 
Q 2322 1972 1947 1972 
L 1259 1972 
L 1259 0 
L 628 0 
L 628 4666 
L 2053 4666 
Q 2853 4666 3247 4331 
Q 3641 3997 3641 3322 
Q 3641 2881 3436 2590 
Q 3231 2300 2841 2188 
z
M 1259 4147 
L 1259 2491 
L 2053 2491 
Q 2509 2491 2742 2702 
Q 2975 2913 2975 3322 
Q 2975 3731 2742 3939 
Q 2509 4147 2053 4147 
L 1259 4147 
z
" transform="scale(0.015625)"/>
       <path id="DejaVuSans-75" d="M 544 1381 
L 544 3500 
L 1119 3500 
L 1119 1403 
Q 1119 906 1312 657 
Q 1506 409 1894 409 
Q 2359 409 2629 706 
Q 2900 1003 2900 1516 
L 2900 3500 
L 3475 3500 
L 3475 0 
L 2900 0 
L 2900 538 
Q 2691 219 2414 64 
Q 2138 -91 1772 -91 
Q 1169 -91 856 284 
Q 544 659 544 1381 
z
M 1991 3584 
L 1991 3584 
z
" transform="scale(0.015625)"/>
       <path id="DejaVuSans-6e" d="M 3513 2113 
L 3513 0 
L 2938 0 
L 2938 2094 
Q 2938 2591 2744 2837 
Q 2550 3084 2163 3084 
Q 1697 3084 1428 2787 
Q 1159 2491 1159 1978 
L 1159 0 
L 581 0 
L 581 3500 
L 1159 3500 
L 1159 2956 
Q 1366 3272 1645 3428 
Q 1925 3584 2291 3584 
Q 2894 3584 3203 3211 
Q 3513 2838 3513 2113 
z
" transform="scale(0.015625)"/>
       <path id="DejaVuSans-74" d="M 1172 4494 
L 1172 3500 
L 2356 3500 
L 2356 3053 
L 1172 3053 
L 1172 1153 
Q 1172 725 1289 603 
Q 1406 481 1766 481 
L 2356 481 
L 2356 0 
L 1766 0 
Q 1100 0 847 248 
Q 594 497 594 1153 
L 594 3053 
L 172 3053 
L 172 3500 
L 594 3500 
L 594 4494 
L 1172 4494 
z
" transform="scale(0.015625)"/>
       <path id="DejaVuSans-69" d="M 603 3500 
L 1178 3500 
L 1178 0 
L 603 0 
L 603 3500 
z
M 603 4863 
L 1178 4863 
L 1178 4134 
L 603 4134 
L 603 4863 
z
" transform="scale(0.015625)"/>
       <path id="DejaVuSans-6d" d="M 3328 2828 
Q 3544 3216 3844 3400 
Q 4144 3584 4550 3584 
Q 5097 3584 5394 3201 
Q 5691 2819 5691 2113 
L 5691 0 
L 5113 0 
L 5113 2094 
Q 5113 2597 4934 2840 
Q 4756 3084 4391 3084 
Q 3944 3084 3684 2787 
Q 3425 2491 3425 1978 
L 3425 0 
L 2847 0 
L 2847 2094 
Q 2847 2600 2669 2842 
Q 2491 3084 2119 3084 
Q 1678 3084 1418 2786 
Q 1159 2488 1159 1978 
L 1159 0 
L 581 0 
L 581 3500 
L 1159 3500 
L 1159 2956 
Q 1356 3278 1631 3431 
Q 1906 3584 2284 3584 
Q 2666 3584 2933 3390 
Q 3200 3197 3328 2828 
z
" transform="scale(0.015625)"/>
       <path id="DejaVuSans-65" d="M 3597 1894 
L 3597 1613 
L 953 1613 
Q 991 1019 1311 708 
Q 1631 397 2203 397 
Q 2534 397 2845 478 
Q 3156 559 3463 722 
L 3463 178 
Q 3153 47 2828 -22 
Q 2503 -91 2169 -91 
Q 1331 -91 842 396 
Q 353 884 353 1716 
Q 353 2575 817 3079 
Q 1281 3584 2069 3584 
Q 2775 3584 3186 3129 
Q 3597 2675 3597 1894 
z
M 3022 2063 
Q 3016 2534 2758 2815 
Q 2500 3097 2075 3097 
Q 1594 3097 1305 2825 
Q 1016 2553 972 2059 
L 3022 2063 
z
" transform="scale(0.015625)"/>
       <path id="DejaVuSans-20" transform="scale(0.015625)"/>
       <path id="DejaVuSans-28" d="M 1984 4856 
Q 1566 4138 1362 3434 
Q 1159 2731 1159 2009 
Q 1159 1288 1364 580 
Q 1569 -128 1984 -844 
L 1484 -844 
Q 1016 -109 783 600 
Q 550 1309 550 2009 
Q 550 2706 781 3412 
Q 1013 4119 1484 4856 
L 1984 4856 
z
" transform="scale(0.015625)"/>
       <path id="DejaVuSans-73" d="M 2834 3397 
L 2834 2853 
Q 2591 2978 2328 3040 
Q 2066 3103 1784 3103 
Q 1356 3103 1142 2972 
Q 928 2841 928 2578 
Q 928 2378 1081 2264 
Q 1234 2150 1697 2047 
L 1894 2003 
Q 2506 1872 2764 1633 
Q 3022 1394 3022 966 
Q 3022 478 2636 193 
Q 2250 -91 1575 -91 
Q 1294 -91 989 -36 
Q 684 19 347 128 
L 347 722 
Q 666 556 975 473 
Q 1284 391 1588 391 
Q 1994 391 2212 530 
Q 2431 669 2431 922 
Q 2431 1156 2273 1281 
Q 2116 1406 1581 1522 
L 1381 1569 
Q 847 1681 609 1914 
Q 372 2147 372 2553 
Q 372 3047 722 3315 
Q 1072 3584 1716 3584 
Q 2034 3584 2315 3537 
Q 2597 3491 2834 3397 
z
" transform="scale(0.015625)"/>
       <path id="DejaVuSans-29" d="M 513 4856 
L 1013 4856 
Q 1481 4119 1714 3412 
Q 1947 2706 1947 2009 
Q 1947 1309 1714 600 
Q 1481 -109 1013 -844 
L 513 -844 
Q 928 -128 1133 580 
Q 1338 1288 1338 2009 
Q 1338 2731 1133 3434 
Q 928 4138 513 4856 
z
" transform="scale(0.015625)"/>
      </defs>
      <use xlink:href="#DejaVuSans-52"/>
      <use xlink:href="#DejaVuSans-75" x="64.982422"/>
      <use xlink:href="#DejaVuSans-6e" x="128.361328"/>
      <use xlink:href="#DejaVuSans-74" x="191.740234"/>
      <use xlink:href="#DejaVuSans-69" x="230.949219"/>
      <use xlink:href="#DejaVuSans-6d" x="258.732422"/>
      <use xlink:href="#DejaVuSans-65" x="356.144531"/>
      <use xlink:href="#DejaVuSans-20" x="417.667969"/>
      <use xlink:href="#DejaVuSans-28" x="449.455078"/>
      <use xlink:href="#DejaVuSans-6d" x="488.46875"/>
      <use xlink:href="#DejaVuSans-73" x="585.880859"/>
      <use xlink:href="#DejaVuSans-29" x="637.980469"/>
     </g>
    </g>
   </g>
   <g id="LineCollection_1">
    <path d="M 89.011152 373.5 
L 89.011152 371.053826 
" clip-path="url(#p19287695cc)" style="fill: none; stroke: #1f77b4; stroke-width: 1.5"/>
    <path d="M 164.596683 337.094117 
L 164.596683 306.814252 
" clip-path="url(#p19287695cc)" style="fill: none; stroke: #1f77b4; stroke-width: 1.5"/>
    <path d="M 240.182215 355.430302 
L 240.182215 341.95005 
" clip-path="url(#p19287695cc)" style="fill: none; stroke: #1f77b4; stroke-width: 1.5"/>
    <path d="M 315.767746 296.890777 
L 315.767746 287.93596 
" clip-path="url(#p19287695cc)" style="fill: none; stroke: #1f77b4; stroke-width: 1.5"/>
    <path d="M 391.353278 332.433308 
L 391.353278 319.379282 
" clip-path="url(#p19287695cc)" style="fill: none; stroke: #1f77b4; stroke-width: 1.5"/>
    <path d="M 466.938809 257.814377 
L 466.938809 250.99435 
" clip-path="url(#p19287695cc)" style="fill: none; stroke: #1f77b4; stroke-width: 1.5"/>
    <path d="M 542.524341 301.769913 
L 542.524341 289.605915 
" clip-path="url(#p19287695cc)" style="fill: none; stroke: #1f77b4; stroke-width: 1.5"/>
   </g>
   <g id="line2d_23">
    <defs>
     <path id="ma0c491241d" d="M 5 0 
L -5 -0 
" style="stroke: #1f77b4"/>
    </defs>
    <g clip-path="url(#p19287695cc)">
     <use xlink:href="#ma0c491241d" x="89.011152" y="373.5" style="fill: #1f77b4; stroke: #1f77b4"/>
     <use xlink:href="#ma0c491241d" x="164.596683" y="337.094117" style="fill: #1f77b4; stroke: #1f77b4"/>
     <use xlink:href="#ma0c491241d" x="240.182215" y="355.430302" style="fill: #1f77b4; stroke: #1f77b4"/>
     <use xlink:href="#ma0c491241d" x="315.767746" y="296.890777" style="fill: #1f77b4; stroke: #1f77b4"/>
     <use xlink:href="#ma0c491241d" x="391.353278" y="332.433308" style="fill: #1f77b4; stroke: #1f77b4"/>
     <use xlink:href="#ma0c491241d" x="466.938809" y="257.814377" style="fill: #1f77b4; stroke: #1f77b4"/>
     <use xlink:href="#ma0c491241d" x="542.524341" y="301.769913" style="fill: #1f77b4; stroke: #1f77b4"/>
    </g>
   </g>
   <g id="line2d_24">
    <g clip-path="url(#p19287695cc)">
     <use xlink:href="#ma0c491241d" x="89.011152" y="371.053826" style="fill: #1f77b4; stroke: #1f77b4"/>
     <use xlink:href="#ma0c491241d" x="164.596683" y="306.814252" style="fill: #1f77b4; stroke: #1f77b4"/>
     <use xlink:href="#ma0c491241d" x="240.182215" y="341.95005" style="fill: #1f77b4; stroke: #1f77b4"/>
     <use xlink:href="#ma0c491241d" x="315.767746" y="287.93596" style="fill: #1f77b4; stroke: #1f77b4"/>
     <use xlink:href="#ma0c491241d" x="391.353278" y="319.379282" style="fill: #1f77b4; stroke: #1f77b4"/>
     <use xlink:href="#ma0c491241d" x="466.938809" y="250.99435" style="fill: #1f77b4; stroke: #1f77b4"/>
     <use xlink:href="#ma0c491241d" x="542.524341" y="289.605915" style="fill: #1f77b4; stroke: #1f77b4"/>
    </g>
   </g>
   <g id="LineCollection_2">
    <path d="M 89.011152 302.826781 
L 89.011152 288.25033 
" clip-path="url(#p19287695cc)" style="fill: none; stroke: #ff7f0e; stroke-width: 1.5"/>
    <path d="M 164.596683 273.896456 
L 164.596683 264.511881 
" clip-path="url(#p19287695cc)" style="fill: none; stroke: #ff7f0e; stroke-width: 1.5"/>
    <path d="M 240.182215 252.408762 
L 240.182215 247.187678 
" clip-path="url(#p19287695cc)" style="fill: none; stroke: #ff7f0e; stroke-width: 1.5"/>
    <path d="M 315.767746 233.371068 
L 315.767746 227.700437 
" clip-path="url(#p19287695cc)" style="fill: none; stroke: #ff7f0e; stroke-width: 1.5"/>
    <path d="M 391.353278 194.445716 
L 391.353278 186.649361 
" clip-path="url(#p19287695cc)" style="fill: none; stroke: #ff7f0e; stroke-width: 1.5"/>
    <path d="M 466.938809 164.009867 
L 466.938809 158.705754 
" clip-path="url(#p19287695cc)" style="fill: none; stroke: #ff7f0e; stroke-width: 1.5"/>
    <path d="M 542.524341 142.482572 
L 542.524341 136.175952 
" clip-path="url(#p19287695cc)" style="fill: none; stroke: #ff7f0e; stroke-width: 1.5"/>
   </g>
   <g id="line2d_25">
    <defs>
     <path id="m3ddf21c57d" d="M 5 0 
L -5 -0 
" style="stroke: #ff7f0e"/>
    </defs>
    <g clip-path="url(#p19287695cc)">
     <use xlink:href="#m3ddf21c57d" x="89.011152" y="302.826781" style="fill: #ff7f0e; stroke: #ff7f0e"/>
     <use xlink:href="#m3ddf21c57d" x="164.596683" y="273.896456" style="fill: #ff7f0e; stroke: #ff7f0e"/>
     <use xlink:href="#m3ddf21c57d" x="240.182215" y="252.408762" style="fill: #ff7f0e; stroke: #ff7f0e"/>
     <use xlink:href="#m3ddf21c57d" x="315.767746" y="233.371068" style="fill: #ff7f0e; stroke: #ff7f0e"/>
     <use xlink:href="#m3ddf21c57d" x="391.353278" y="194.445716" style="fill: #ff7f0e; stroke: #ff7f0e"/>
     <use xlink:href="#m3ddf21c57d" x="466.938809" y="164.009867" style="fill: #ff7f0e; stroke: #ff7f0e"/>
     <use xlink:href="#m3ddf21c57d" x="542.524341" y="142.482572" style="fill: #ff7f0e; stroke: #ff7f0e"/>
    </g>
   </g>
   <g id="line2d_26">
    <g clip-path="url(#p19287695cc)">
     <use xlink:href="#m3ddf21c57d" x="89.011152" y="288.25033" style="fill: #ff7f0e; stroke: #ff7f0e"/>
     <use xlink:href="#m3ddf21c57d" x="164.596683" y="264.511881" style="fill: #ff7f0e; stroke: #ff7f0e"/>
     <use xlink:href="#m3ddf21c57d" x="240.182215" y="247.187678" style="fill: #ff7f0e; stroke: #ff7f0e"/>
     <use xlink:href="#m3ddf21c57d" x="315.767746" y="227.700437" style="fill: #ff7f0e; stroke: #ff7f0e"/>
     <use xlink:href="#m3ddf21c57d" x="391.353278" y="186.649361" style="fill: #ff7f0e; stroke: #ff7f0e"/>
     <use xlink:href="#m3ddf21c57d" x="466.938809" y="158.705754" style="fill: #ff7f0e; stroke: #ff7f0e"/>
     <use xlink:href="#m3ddf21c57d" x="542.524341" y="136.175952" style="fill: #ff7f0e; stroke: #ff7f0e"/>
    </g>
   </g>
   <g id="LineCollection_3">
    <path d="M 89.011152 208.483562 
L 89.011152 188.56146 
" clip-path="url(#p19287695cc)" style="fill: none; stroke: #2ca02c; stroke-width: 1.5"/>
    <path d="M 164.596683 207.586643 
L 164.596683 193.52677 
" clip-path="url(#p19287695cc)" style="fill: none; stroke: #2ca02c; stroke-width: 1.5"/>
    <path d="M 240.182215 188.636653 
L 240.182215 182.542393 
" clip-path="url(#p19287695cc)" style="fill: none; stroke: #2ca02c; stroke-width: 1.5"/>
    <path d="M 315.767746 149.066306 
L 315.767746 126.84537 
" clip-path="url(#p19287695cc)" style="fill: none; stroke: #2ca02c; stroke-width: 1.5"/>
    <path d="M 391.353278 88.52516 
L 391.353278 74.227218 
" clip-path="url(#p19287695cc)" style="fill: none; stroke: #2ca02c; stroke-width: 1.5"/>
    <path d="M 466.938809 87.201111 
L 466.938809 71.064047 
" clip-path="url(#p19287695cc)" style="fill: none; stroke: #2ca02c; stroke-width: 1.5"/>
    <path d="M 542.524341 47.913011 
L 542.524341 42.7 
" clip-path="url(#p19287695cc)" style="fill: none; stroke: #2ca02c; stroke-width: 1.5"/>
   </g>
   <g id="line2d_27">
    <defs>
     <path id="m78bed35bcb" d="M 5 0 
L -5 -0 
" style="stroke: #2ca02c"/>
    </defs>
    <g clip-path="url(#p19287695cc)">
     <use xlink:href="#m78bed35bcb" x="89.011152" y="208.483562" style="fill: #2ca02c; stroke: #2ca02c"/>
     <use xlink:href="#m78bed35bcb" x="164.596683" y="207.586643" style="fill: #2ca02c; stroke: #2ca02c"/>
     <use xlink:href="#m78bed35bcb" x="240.182215" y="188.636653" style="fill: #2ca02c; stroke: #2ca02c"/>
     <use xlink:href="#m78bed35bcb" x="315.767746" y="149.066306" style="fill: #2ca02c; stroke: #2ca02c"/>
     <use xlink:href="#m78bed35bcb" x="391.353278" y="88.52516" style="fill: #2ca02c; stroke: #2ca02c"/>
     <use xlink:href="#m78bed35bcb" x="466.938809" y="87.201111" style="fill: #2ca02c; stroke: #2ca02c"/>
     <use xlink:href="#m78bed35bcb" x="542.524341" y="47.913011" style="fill: #2ca02c; stroke: #2ca02c"/>
    </g>
   </g>
   <g id="line2d_28">
    <g clip-path="url(#p19287695cc)">
     <use xlink:href="#m78bed35bcb" x="89.011152" y="188.56146" style="fill: #2ca02c; stroke: #2ca02c"/>
     <use xlink:href="#m78bed35bcb" x="164.596683" y="193.52677" style="fill: #2ca02c; stroke: #2ca02c"/>
     <use xlink:href="#m78bed35bcb" x="240.182215" y="182.542393" style="fill: #2ca02c; stroke: #2ca02c"/>
     <use xlink:href="#m78bed35bcb" x="315.767746" y="126.84537" style="fill: #2ca02c; stroke: #2ca02c"/>
     <use xlink:href="#m78bed35bcb" x="391.353278" y="74.227218" style="fill: #2ca02c; stroke: #2ca02c"/>
     <use xlink:href="#m78bed35bcb" x="466.938809" y="71.064047" style="fill: #2ca02c; stroke: #2ca02c"/>
     <use xlink:href="#m78bed35bcb" x="542.524341" y="42.7" style="fill: #2ca02c; stroke: #2ca02c"/>
    </g>
   </g>
   <g id="line2d_29">
    <path d="M 89.011152 372.272724 
L 164.596683 321.313097 
L 240.182215 348.562995 
L 315.767746 292.357238 
L 391.353278 325.787028 
L 466.938809 254.371804 
L 542.524341 295.584353 
" clip-path="url(#p19287695cc)" style="fill: none; stroke: #1f77b4; stroke-width: 1.5; stroke-linecap: square"/>
    <defs>
     <path id="m0be4d07cec" d="M 0 3 
C 0.795609 3 1.55874 2.683901 2.12132 2.12132 
C 2.683901 1.55874 3 0.795609 3 0 
C 3 -0.795609 2.683901 -1.55874 2.12132 -2.12132 
C 1.55874 -2.683901 0.795609 -3 0 -3 
C -0.795609 -3 -1.55874 -2.683901 -2.12132 -2.12132 
C -2.683901 -1.55874 -3 -0.795609 -3 0 
C -3 0.795609 -2.683901 1.55874 -2.12132 2.12132 
C -1.55874 2.683901 -0.795609 3 0 3 
z
" style="stroke: #1f77b4"/>
    </defs>
    <g clip-path="url(#p19287695cc)">
     <use xlink:href="#m0be4d07cec" x="89.011152" y="372.272724" style="fill: #1f77b4; stroke: #1f77b4"/>
     <use xlink:href="#m0be4d07cec" x="164.596683" y="321.313097" style="fill: #1f77b4; stroke: #1f77b4"/>
     <use xlink:href="#m0be4d07cec" x="240.182215" y="348.562995" style="fill: #1f77b4; stroke: #1f77b4"/>
     <use xlink:href="#m0be4d07cec" x="315.767746" y="292.357238" style="fill: #1f77b4; stroke: #1f77b4"/>
     <use xlink:href="#m0be4d07cec" x="391.353278" y="325.787028" style="fill: #1f77b4; stroke: #1f77b4"/>
     <use xlink:href="#m0be4d07cec" x="466.938809" y="254.371804" style="fill: #1f77b4; stroke: #1f77b4"/>
     <use xlink:href="#m0be4d07cec" x="542.524341" y="295.584353" style="fill: #1f77b4; stroke: #1f77b4"/>
    </g>
   </g>
   <g id="line2d_30">
    <path d="M 89.011152 295.389855 
L 164.596683 269.142522 
L 240.182215 249.779137 
L 315.767746 230.513242 
L 391.353278 190.504991 
L 466.938809 161.338117 
L 542.524341 139.30142 
" clip-path="url(#p19287695cc)" style="fill: none; stroke: #ff7f0e; stroke-width: 1.5; stroke-linecap: square"/>
    <defs>
     <path id="m39d5041daa" d="M 0 3 
C 0.795609 3 1.55874 2.683901 2.12132 2.12132 
C 2.683901 1.55874 3 0.795609 3 0 
C 3 -0.795609 2.683901 -1.55874 2.12132 -2.12132 
C 1.55874 -2.683901 0.795609 -3 0 -3 
C -0.795609 -3 -1.55874 -2.683901 -2.12132 -2.12132 
C -2.683901 -1.55874 -3 -0.795609 -3 0 
C -3 0.795609 -2.683901 1.55874 -2.12132 2.12132 
C -1.55874 2.683901 -0.795609 3 0 3 
z
" style="stroke: #ff7f0e"/>
    </defs>
    <g clip-path="url(#p19287695cc)">
     <use xlink:href="#m39d5041daa" x="89.011152" y="295.389855" style="fill: #ff7f0e; stroke: #ff7f0e"/>
     <use xlink:href="#m39d5041daa" x="164.596683" y="269.142522" style="fill: #ff7f0e; stroke: #ff7f0e"/>
     <use xlink:href="#m39d5041daa" x="240.182215" y="249.779137" style="fill: #ff7f0e; stroke: #ff7f0e"/>
     <use xlink:href="#m39d5041daa" x="315.767746" y="230.513242" style="fill: #ff7f0e; stroke: #ff7f0e"/>
     <use xlink:href="#m39d5041daa" x="391.353278" y="190.504991" style="fill: #ff7f0e; stroke: #ff7f0e"/>
     <use xlink:href="#m39d5041daa" x="466.938809" y="161.338117" style="fill: #ff7f0e; stroke: #ff7f0e"/>
     <use xlink:href="#m39d5041daa" x="542.524341" y="139.30142" style="fill: #ff7f0e; stroke: #ff7f0e"/>
    </g>
   </g>
   <g id="line2d_31">
    <path d="M 89.011152 198.244812 
L 164.596683 200.418356 
L 240.182215 185.563524 
L 315.767746 137.610397 
L 391.353278 81.233115 
L 466.938809 78.950344 
L 542.524341 45.287482 
" clip-path="url(#p19287695cc)" style="fill: none; stroke: #2ca02c; stroke-width: 1.5; stroke-linecap: square"/>
    <defs>
     <path id="mfd2a4118ae" d="M 0 3 
C 0.795609 3 1.55874 2.683901 2.12132 2.12132 
C 2.683901 1.55874 3 0.795609 3 0 
C 3 -0.795609 2.683901 -1.55874 2.12132 -2.12132 
C 1.55874 -2.683901 0.795609 -3 0 -3 
C -0.795609 -3 -1.55874 -2.683901 -2.12132 -2.12132 
C -2.683901 -1.55874 -3 -0.795609 -3 0 
C -3 0.795609 -2.683901 1.55874 -2.12132 2.12132 
C -1.55874 2.683901 -0.795609 3 0 3 
z
" style="stroke: #2ca02c"/>
    </defs>
    <g clip-path="url(#p19287695cc)">
     <use xlink:href="#mfd2a4118ae" x="89.011152" y="198.244812" style="fill: #2ca02c; stroke: #2ca02c"/>
     <use xlink:href="#mfd2a4118ae" x="164.596683" y="200.418356" style="fill: #2ca02c; stroke: #2ca02c"/>
     <use xlink:href="#mfd2a4118ae" x="240.182215" y="185.563524" style="fill: #2ca02c; stroke: #2ca02c"/>
     <use xlink:href="#mfd2a4118ae" x="315.767746" y="137.610397" style="fill: #2ca02c; stroke: #2ca02c"/>
     <use xlink:href="#mfd2a4118ae" x="391.353278" y="81.233115" style="fill: #2ca02c; stroke: #2ca02c"/>
     <use xlink:href="#mfd2a4118ae" x="466.938809" y="78.950344" style="fill: #2ca02c; stroke: #2ca02c"/>
     <use xlink:href="#mfd2a4118ae" x="542.524341" y="45.287482" style="fill: #2ca02c; stroke: #2ca02c"/>
    </g>
   </g>
   <g id="patch_3">
    <path d="M 66.335492 390.04 
L 66.335492 26.16 
" style="fill: none; stroke: #000000; stroke-width: 0.8; stroke-linejoin: miter; stroke-linecap: square"/>
   </g>
   <g id="patch_4">
    <path d="M 565.2 390.04 
L 565.2 26.16 
" style="fill: none; stroke: #000000; stroke-width: 0.8; stroke-linejoin: miter; stroke-linecap: square"/>
   </g>
   <g id="patch_5">
    <path d="M 66.335492 390.04 
L 565.2 390.04 
" style="fill: none; stroke: #000000; stroke-width: 0.8; stroke-linejoin: miter; stroke-linecap: square"/>
   </g>
   <g id="patch_6">
    <path d="M 66.335492 26.16 
L 565.2 26.16 
" style="fill: none; stroke: #000000; stroke-width: 0.8; stroke-linejoin: miter; stroke-linecap: square"/>
   </g>
   <g id="text_14">
    <!-- Directed: Runtime vs k -->
    <g transform="translate(247.352746 20.16) scale(0.12 -0.12)">
     <defs>
      <path id="DejaVuSans-44" d="M 1259 4147 
L 1259 519 
L 2022 519 
Q 2988 519 3436 956 
Q 3884 1394 3884 2338 
Q 3884 3275 3436 3711 
Q 2988 4147 2022 4147 
L 1259 4147 
z
M 628 4666 
L 1925 4666 
Q 3281 4666 3915 4102 
Q 4550 3538 4550 2338 
Q 4550 1131 3912 565 
Q 3275 0 1925 0 
L 628 0 
L 628 4666 
z
" transform="scale(0.015625)"/>
      <path id="DejaVuSans-72" d="M 2631 2963 
Q 2534 3019 2420 3045 
Q 2306 3072 2169 3072 
Q 1681 3072 1420 2755 
Q 1159 2438 1159 1844 
L 1159 0 
L 581 0 
L 581 3500 
L 1159 3500 
L 1159 2956 
Q 1341 3275 1631 3429 
Q 1922 3584 2338 3584 
Q 2397 3584 2469 3576 
Q 2541 3569 2628 3553 
L 2631 2963 
z
" transform="scale(0.015625)"/>
      <path id="DejaVuSans-63" d="M 3122 3366 
L 3122 2828 
Q 2878 2963 2633 3030 
Q 2388 3097 2138 3097 
Q 1578 3097 1268 2742 
Q 959 2388 959 1747 
Q 959 1106 1268 751 
Q 1578 397 2138 397 
Q 2388 397 2633 464 
Q 2878 531 3122 666 
L 3122 134 
Q 2881 22 2623 -34 
Q 2366 -91 2075 -91 
Q 1284 -91 818 406 
Q 353 903 353 1747 
Q 353 2603 823 3093 
Q 1294 3584 2113 3584 
Q 2378 3584 2631 3529 
Q 2884 3475 3122 3366 
z
" transform="scale(0.015625)"/>
      <path id="DejaVuSans-64" d="M 2906 2969 
L 2906 4863 
L 3481 4863 
L 3481 0 
L 2906 0 
L 2906 525 
Q 2725 213 2448 61 
Q 2172 -91 1784 -91 
Q 1150 -91 751 415 
Q 353 922 353 1747 
Q 353 2572 751 3078 
Q 1150 3584 1784 3584 
Q 2172 3584 2448 3432 
Q 2725 3281 2906 2969 
z
M 947 1747 
Q 947 1113 1208 752 
Q 1469 391 1925 391 
Q 2381 391 2643 752 
Q 2906 1113 2906 1747 
Q 2906 2381 2643 2742 
Q 2381 3103 1925 3103 
Q 1469 3103 1208 2742 
Q 947 2381 947 1747 
z
" transform="scale(0.015625)"/>
      <path id="DejaVuSans-3a" d="M 750 794 
L 1409 794 
L 1409 0 
L 750 0 
L 750 794 
z
M 750 3309 
L 1409 3309 
L 1409 2516 
L 750 2516 
L 750 3309 
z
" transform="scale(0.015625)"/>
      <path id="DejaVuSans-76" d="M 191 3500 
L 800 3500 
L 1894 563 
L 2988 3500 
L 3597 3500 
L 2284 0 
L 1503 0 
L 191 3500 
z
" transform="scale(0.015625)"/>
     </defs>
     <use xlink:href="#DejaVuSans-44"/>
     <use xlink:href="#DejaVuSans-69" x="77.001953"/>
     <use xlink:href="#DejaVuSans-72" x="104.785156"/>
     <use xlink:href="#DejaVuSans-65" x="143.648438"/>
     <use xlink:href="#DejaVuSans-63" x="205.171875"/>
     <use xlink:href="#DejaVuSans-74" x="260.152344"/>
     <use xlink:href="#DejaVuSans-65" x="299.361328"/>
     <use xlink:href="#DejaVuSans-64" x="360.884766"/>
     <use xlink:href="#DejaVuSans-3a" x="424.361328"/>
     <use xlink:href="#DejaVuSans-20" x="458.052734"/>
     <use xlink:href="#DejaVuSans-52" x="489.839844"/>
     <use xlink:href="#DejaVuSans-75" x="554.822266"/>
     <use xlink:href="#DejaVuSans-6e" x="618.201172"/>
     <use xlink:href="#DejaVuSans-74" x="681.580078"/>
     <use xlink:href="#DejaVuSans-69" x="720.789062"/>
     <use xlink:href="#DejaVuSans-6d" x="748.572266"/>
     <use xlink:href="#DejaVuSans-65" x="845.984375"/>
     <use xlink:href="#DejaVuSans-20" x="907.507812"/>
     <use xlink:href="#DejaVuSans-76" x="939.294922"/>
     <use xlink:href="#DejaVuSans-73" x="998.474609"/>
     <use xlink:href="#DejaVuSans-20" x="1050.574219"/>
     <use xlink:href="#DejaVuSans-6b" x="1082.361328"/>
    </g>
   </g>
   <g id="legend_1">
    <g id="patch_7">
     <path d="M 73.335492 92.8725 
L 133.060492 92.8725 
Q 135.060492 92.8725 135.060492 90.8725 
L 135.060492 33.16 
Q 135.060492 31.16 133.060492 31.16 
L 73.335492 31.16 
Q 71.335492 31.16 71.335492 33.16 
L 71.335492 90.8725 
Q 71.335492 92.8725 73.335492 92.8725 
z
" style="fill: #ffffff; opacity: 0.8; stroke: #cccccc; stroke-linejoin: miter"/>
    </g>
    <g id="text_15">
     <!-- Join -->
     <g transform="translate(94.105805 42.758437) scale(0.1 -0.1)">
      <defs>
       <path id="DejaVuSans-4a" d="M 628 4666 
L 1259 4666 
L 1259 325 
Q 1259 -519 939 -900 
Q 619 -1281 -91 -1281 
L -331 -1281 
L -331 -750 
L -134 -750 
Q 284 -750 456 -515 
Q 628 -281 628 325 
L 628 4666 
z
" transform="scale(0.015625)"/>
       <path id="DejaVuSans-6f" d="M 1959 3097 
Q 1497 3097 1228 2736 
Q 959 2375 959 1747 
Q 959 1119 1226 758 
Q 1494 397 1959 397 
Q 2419 397 2687 759 
Q 2956 1122 2956 1747 
Q 2956 2369 2687 2733 
Q 2419 3097 1959 3097 
z
M 1959 3584 
Q 2709 3584 3137 3096 
Q 3566 2609 3566 1747 
Q 3566 888 3137 398 
Q 2709 -91 1959 -91 
Q 1206 -91 779 398 
Q 353 888 353 1747 
Q 353 2609 779 3096 
Q 1206 3584 1959 3584 
z
" transform="scale(0.015625)"/>
      </defs>
      <use xlink:href="#DejaVuSans-4a"/>
      <use xlink:href="#DejaVuSans-6f" x="29.492188"/>
      <use xlink:href="#DejaVuSans-69" x="90.673828"/>
      <use xlink:href="#DejaVuSans-6e" x="118.457031"/>
     </g>
    </g>
    <g id="LineCollection_4">
     <path d="M 85.335492 58.936562 
L 85.335492 48.936562 
" style="fill: none; stroke: #1f77b4; stroke-width: 1.5"/>
    </g>
    <g id="line2d_32">
     <g>
      <use xlink:href="#ma0c491241d" x="85.335492" y="58.936562" style="fill: #1f77b4; stroke: #1f77b4"/>
     </g>
    </g>
    <g id="line2d_33">
     <g>
      <use xlink:href="#ma0c491241d" x="85.335492" y="48.936562" style="fill: #1f77b4; stroke: #1f77b4"/>
     </g>
    </g>
    <g id="line2d_34">
     <path d="M 75.335492 53.936562 
L 95.335492 53.936562 
" style="fill: none; stroke: #1f77b4; stroke-width: 1.5; stroke-linecap: square"/>
    </g>
    <g id="line2d_35">
     <g>
      <use xlink:href="#m0be4d07cec" x="85.335492" y="53.936562" style="fill: #1f77b4; stroke: #1f77b4"/>
     </g>
    </g>
    <g id="text_16">
     <!-- Join 2 -->
     <g transform="translate(103.335492 57.436562) scale(0.1 -0.1)">
      <use xlink:href="#DejaVuSans-4a"/>
      <use xlink:href="#DejaVuSans-6f" x="29.492188"/>
      <use xlink:href="#DejaVuSans-69" x="90.673828"/>
      <use xlink:href="#DejaVuSans-6e" x="118.457031"/>
      <use xlink:href="#DejaVuSans-20" x="181.835938"/>
      <use xlink:href="#DejaVuSans-32" x="213.623047"/>
     </g>
    </g>
    <g id="LineCollection_5">
     <path d="M 85.335492 73.614688 
L 85.335492 63.614688 
" style="fill: none; stroke: #ff7f0e; stroke-width: 1.5"/>
    </g>
    <g id="line2d_36">
     <g>
      <use xlink:href="#m3ddf21c57d" x="85.335492" y="73.614688" style="fill: #ff7f0e; stroke: #ff7f0e"/>
     </g>
    </g>
    <g id="line2d_37">
     <g>
      <use xlink:href="#m3ddf21c57d" x="85.335492" y="63.614688" style="fill: #ff7f0e; stroke: #ff7f0e"/>
     </g>
    </g>
    <g id="line2d_38">
     <path d="M 75.335492 68.614688 
L 95.335492 68.614688 
" style="fill: none; stroke: #ff7f0e; stroke-width: 1.5; stroke-linecap: square"/>
    </g>
    <g id="line2d_39">
     <g>
      <use xlink:href="#m39d5041daa" x="85.335492" y="68.614688" style="fill: #ff7f0e; stroke: #ff7f0e"/>
     </g>
    </g>
    <g id="text_17">
     <!-- Join 3 -->
     <g transform="translate(103.335492 72.114688) scale(0.1 -0.1)">
      <use xlink:href="#DejaVuSans-4a"/>
      <use xlink:href="#DejaVuSans-6f" x="29.492188"/>
      <use xlink:href="#DejaVuSans-69" x="90.673828"/>
      <use xlink:href="#DejaVuSans-6e" x="118.457031"/>
      <use xlink:href="#DejaVuSans-20" x="181.835938"/>
      <use xlink:href="#DejaVuSans-33" x="213.623047"/>
     </g>
    </g>
    <g id="LineCollection_6">
     <path d="M 85.335492 88.292812 
L 85.335492 78.292812 
" style="fill: none; stroke: #2ca02c; stroke-width: 1.5"/>
    </g>
    <g id="line2d_40">
     <g>
      <use xlink:href="#m78bed35bcb" x="85.335492" y="88.292812" style="fill: #2ca02c; stroke: #2ca02c"/>
     </g>
    </g>
    <g id="line2d_41">
     <g>
      <use xlink:href="#m78bed35bcb" x="85.335492" y="78.292812" style="fill: #2ca02c; stroke: #2ca02c"/>
     </g>
    </g>
    <g id="line2d_42">
     <path d="M 75.335492 83.292812 
L 95.335492 83.292812 
" style="fill: none; stroke: #2ca02c; stroke-width: 1.5; stroke-linecap: square"/>
    </g>
    <g id="line2d_43">
     <g>
      <use xlink:href="#mfd2a4118ae" x="85.335492" y="83.292812" style="fill: #2ca02c; stroke: #2ca02c"/>
     </g>
    </g>
    <g id="text_18">
     <!-- Join 4 -->
     <g transform="translate(103.335492 86.792812) scale(0.1 -0.1)">
      <use xlink:href="#DejaVuSans-4a"/>
      <use xlink:href="#DejaVuSans-6f" x="29.492188"/>
      <use xlink:href="#DejaVuSans-69" x="90.673828"/>
      <use xlink:href="#DejaVuSans-6e" x="118.457031"/>
      <use xlink:href="#DejaVuSans-20" x="181.835938"/>
      <use xlink:href="#DejaVuSans-34" x="213.623047"/>
     </g>
    </g>
   </g>
  </g>
 </g>
 <defs>
  <clipPath id="p19287695cc">
   <rect x="66.335492" y="26.16" width="498.864508" height="363.88"/>
  </clipPath>
 </defs>
</svg>
