<?xml version="1.0" encoding="utf-8" standalone="no"?>
<!DOCTYPE svg PUBLIC "-//W3C//DTD SVG 1.1//EN"
  "http://www.w3.org/Graphics/SVG/1.1/DTD/svg11.dtd">
<svg xmlns:xlink="http://www.w3.org/1999/xlink" width="576pt" height="432pt" viewBox="0 0 576 432" xmlns="http://www.w3.org/2000/svg" version="1.1">
 <metadata>
  <rdf:RDF xmlns:dc="http://purl.org/dc/elements/1.1/" xmlns:cc="http://creativecommons.org/ns#" xmlns:rdf="http://www.w3.org/1999/02/22-rdf-syntax-ns#">
   <cc:Work>
    <dc:type rdf:resource="http://purl.org/dc/dcmitype/StillImage"/>
    <dc:date>2025-05-26T16:57:46.612545</dc:date>
    <dc:format>image/svg+xml</dc:format>
    <dc:creator>
     <cc:Agent>
      <dc:title>Matplotlib v3.8.3, https://matplotlib.org/</dc:title>
     </cc:Agent>
    </dc:creator>
   </cc:Work>
  </rdf:RDF>
 </metadata>
 <defs>
  <style type="text/css">*{stroke-linejoin: round; stroke-linecap: butt}</style>
 </defs>
 <g id="figure_1">
  <g id="patch_1">
   <path d="M 0 432 
L 576 432 
L 576 0 
L 0 0 
z
" style="fill: #ffffff"/>
  </g>
  <g id="axes_1">
   <g id="patch_2">
    <path d="M 49.485185 390.04 
L 565.2 390.04 
L 565.2 26.16 
L 49.485185 26.16 
z
" style="fill: #ffffff"/>
   </g>
   <g id="matplotlib.axis_1">
    <g id="xtick_1">
     <g id="line2d_1">
      <path d="M 72.926767 390.04 
L 72.926767 26.16 
" clip-path="url(#pd0b98dcdc3)" style="fill: none; stroke: #b0b0b0; stroke-width: 0.8; stroke-linecap: square"/>
     </g>
     <g id="line2d_2">
      <defs>
       <path id="m9501bd50bd" d="M 0 0 
L 0 3.5 
" style="stroke: #000000; stroke-width: 0.8"/>
      </defs>
      <g>
       <use xlink:href="#m9501bd50bd" x="72.926767" y="390.04" style="stroke: #000000; stroke-width: 0.8"/>
      </g>
     </g>
     <g id="text_1">
      <!-- 4 -->
      <g transform="translate(69.745517 404.638438) scale(0.1 -0.1)">
       <defs>
        <path id="DejaVuSans-34" d="M 2419 4116 
L 825 1625 
L 2419 1625 
L 2419 4116 
z
M 2253 4666 
L 3047 4666 
L 3047 1625 
L 3713 1625 
L 3713 1100 
L 3047 1100 
L 3047 0 
L 2419 0 
L 2419 1100 
L 313 1100 
L 313 1709 
L 2253 4666 
z
" transform="scale(0.015625)"/>
       </defs>
       <use xlink:href="#DejaVuSans-34"/>
      </g>
     </g>
    </g>
    <g id="xtick_2">
     <g id="line2d_3">
      <path d="M 151.065376 390.04 
L 151.065376 26.16 
" clip-path="url(#pd0b98dcdc3)" style="fill: none; stroke: #b0b0b0; stroke-width: 0.8; stroke-linecap: square"/>
     </g>
     <g id="line2d_4">
      <g>
       <use xlink:href="#m9501bd50bd" x="151.065376" y="390.04" style="stroke: #000000; stroke-width: 0.8"/>
      </g>
     </g>
     <g id="text_2">
      <!-- 5 -->
      <g transform="translate(147.884126 404.638438) scale(0.1 -0.1)">
       <defs>
        <path id="DejaVuSans-35" d="M 691 4666 
L 3169 4666 
L 3169 4134 
L 1269 4134 
L 1269 2991 
Q 1406 3038 1543 3061 
Q 1681 3084 1819 3084 
Q 2600 3084 3056 2656 
Q 3513 2228 3513 1497 
Q 3513 744 3044 326 
Q 2575 -91 1722 -91 
Q 1428 -91 1123 -41 
Q 819 9 494 109 
L 494 744 
Q 775 591 1075 516 
Q 1375 441 1709 441 
Q 2250 441 2565 725 
Q 2881 1009 2881 1497 
Q 2881 1984 2565 2268 
Q 2250 2553 1709 2553 
Q 1456 2553 1204 2497 
Q 953 2441 691 2322 
L 691 4666 
z
" transform="scale(0.015625)"/>
       </defs>
       <use xlink:href="#DejaVuSans-35"/>
      </g>
     </g>
    </g>
    <g id="xtick_3">
     <g id="line2d_5">
      <path d="M 229.203984 390.04 
L 229.203984 26.16 
" clip-path="url(#pd0b98dcdc3)" style="fill: none; stroke: #b0b0b0; stroke-width: 0.8; stroke-linecap: square"/>
     </g>
     <g id="line2d_6">
      <g>
       <use xlink:href="#m9501bd50bd" x="229.203984" y="390.04" style="stroke: #000000; stroke-width: 0.8"/>
      </g>
     </g>
     <g id="text_3">
      <!-- 6 -->
      <g transform="translate(226.022734 404.638438) scale(0.1 -0.1)">
       <defs>
        <path id="DejaVuSans-36" d="M 2113 2584 
Q 1688 2584 1439 2293 
Q 1191 2003 1191 1497 
Q 1191 994 1439 701 
Q 1688 409 2113 409 
Q 2538 409 2786 701 
Q 3034 994 3034 1497 
Q 3034 2003 2786 2293 
Q 2538 2584 2113 2584 
z
M 3366 4563 
L 3366 3988 
Q 3128 4100 2886 4159 
Q 2644 4219 2406 4219 
Q 1781 4219 1451 3797 
Q 1122 3375 1075 2522 
Q 1259 2794 1537 2939 
Q 1816 3084 2150 3084 
Q 2853 3084 3261 2657 
Q 3669 2231 3669 1497 
Q 3669 778 3244 343 
Q 2819 -91 2113 -91 
Q 1303 -91 875 529 
Q 447 1150 447 2328 
Q 447 3434 972 4092 
Q 1497 4750 2381 4750 
Q 2619 4750 2861 4703 
Q 3103 4656 3366 4563 
z
" transform="scale(0.015625)"/>
       </defs>
       <use xlink:href="#DejaVuSans-36"/>
      </g>
     </g>
    </g>
    <g id="xtick_4">
     <g id="line2d_7">
      <path d="M 307.342592 390.04 
L 307.342592 26.16 
" clip-path="url(#pd0b98dcdc3)" style="fill: none; stroke: #b0b0b0; stroke-width: 0.8; stroke-linecap: square"/>
     </g>
     <g id="line2d_8">
      <g>
       <use xlink:href="#m9501bd50bd" x="307.342592" y="390.04" style="stroke: #000000; stroke-width: 0.8"/>
      </g>
     </g>
     <g id="text_4">
      <!-- 7 -->
      <g transform="translate(304.161342 404.638438) scale(0.1 -0.1)">
       <defs>
        <path id="DejaVuSans-37" d="M 525 4666 
L 3525 4666 
L 3525 4397 
L 1831 0 
L 1172 0 
L 2766 4134 
L 525 4134 
L 525 4666 
z
" transform="scale(0.015625)"/>
       </defs>
       <use xlink:href="#DejaVuSans-37"/>
      </g>
     </g>
    </g>
    <g id="xtick_5">
     <g id="line2d_9">
      <path d="M 385.481201 390.04 
L 385.481201 26.16 
" clip-path="url(#pd0b98dcdc3)" style="fill: none; stroke: #b0b0b0; stroke-width: 0.8; stroke-linecap: square"/>
     </g>
     <g id="line2d_10">
      <g>
       <use xlink:href="#m9501bd50bd" x="385.481201" y="390.04" style="stroke: #000000; stroke-width: 0.8"/>
      </g>
     </g>
     <g id="text_5">
      <!-- 8 -->
      <g transform="translate(382.299951 404.638438) scale(0.1 -0.1)">
       <defs>
        <path id="DejaVuSans-38" d="M 2034 2216 
Q 1584 2216 1326 1975 
Q 1069 1734 1069 1313 
Q 1069 891 1326 650 
Q 1584 409 2034 409 
Q 2484 409 2743 651 
Q 3003 894 3003 1313 
Q 3003 1734 2745 1975 
Q 2488 2216 2034 2216 
z
M 1403 2484 
Q 997 2584 770 2862 
Q 544 3141 544 3541 
Q 544 4100 942 4425 
Q 1341 4750 2034 4750 
Q 2731 4750 3128 4425 
Q 3525 4100 3525 3541 
Q 3525 3141 3298 2862 
Q 3072 2584 2669 2484 
Q 3125 2378 3379 2068 
Q 3634 1759 3634 1313 
Q 3634 634 3220 271 
Q 2806 -91 2034 -91 
Q 1263 -91 848 271 
Q 434 634 434 1313 
Q 434 1759 690 2068 
Q 947 2378 1403 2484 
z
M 1172 3481 
Q 1172 3119 1398 2916 
Q 1625 2713 2034 2713 
Q 2441 2713 2670 2916 
Q 2900 3119 2900 3481 
Q 2900 3844 2670 4047 
Q 2441 4250 2034 4250 
Q 1625 4250 1398 4047 
Q 1172 3844 1172 3481 
z
" transform="scale(0.015625)"/>
       </defs>
       <use xlink:href="#DejaVuSans-38"/>
      </g>
     </g>
    </g>
    <g id="xtick_6">
     <g id="line2d_11">
      <path d="M 463.619809 390.04 
L 463.619809 26.16 
" clip-path="url(#pd0b98dcdc3)" style="fill: none; stroke: #b0b0b0; stroke-width: 0.8; stroke-linecap: square"/>
     </g>
     <g id="line2d_12">
      <g>
       <use xlink:href="#m9501bd50bd" x="463.619809" y="390.04" style="stroke: #000000; stroke-width: 0.8"/>
      </g>
     </g>
     <g id="text_6">
      <!-- 9 -->
      <g transform="translate(460.438559 404.638438) scale(0.1 -0.1)">
       <defs>
        <path id="DejaVuSans-39" d="M 703 97 
L 703 672 
Q 941 559 1184 500 
Q 1428 441 1663 441 
Q 2288 441 2617 861 
Q 2947 1281 2994 2138 
Q 2813 1869 2534 1725 
Q 2256 1581 1919 1581 
Q 1219 1581 811 2004 
Q 403 2428 403 3163 
Q 403 3881 828 4315 
Q 1253 4750 1959 4750 
Q 2769 4750 3195 4129 
Q 3622 3509 3622 2328 
Q 3622 1225 3098 567 
Q 2575 -91 1691 -91 
Q 1453 -91 1209 -44 
Q 966 3 703 97 
z
M 1959 2075 
Q 2384 2075 2632 2365 
Q 2881 2656 2881 3163 
Q 2881 3666 2632 3958 
Q 2384 4250 1959 4250 
Q 1534 4250 1286 3958 
Q 1038 3666 1038 3163 
Q 1038 2656 1286 2365 
Q 1534 2075 1959 2075 
z
" transform="scale(0.015625)"/>
       </defs>
       <use xlink:href="#DejaVuSans-39"/>
      </g>
     </g>
    </g>
    <g id="xtick_7">
     <g id="line2d_13">
      <path d="M 541.758417 390.04 
L 541.758417 26.16 
" clip-path="url(#pd0b98dcdc3)" style="fill: none; stroke: #b0b0b0; stroke-width: 0.8; stroke-linecap: square"/>
     </g>
     <g id="line2d_14">
      <g>
       <use xlink:href="#m9501bd50bd" x="541.758417" y="390.04" style="stroke: #000000; stroke-width: 0.8"/>
      </g>
     </g>
     <g id="text_7">
      <!-- 10 -->
      <g transform="translate(535.395917 404.638438) scale(0.1 -0.1)">
       <defs>
        <path id="DejaVuSans-31" d="M 794 531 
L 1825 531 
L 1825 4091 
L 703 3866 
L 703 4441 
L 1819 4666 
L 2450 4666 
L 2450 531 
L 3481 531 
L 3481 0 
L 794 0 
L 794 531 
z
" transform="scale(0.015625)"/>
        <path id="DejaVuSans-30" d="M 2034 4250 
Q 1547 4250 1301 3770 
Q 1056 3291 1056 2328 
Q 1056 1369 1301 889 
Q 1547 409 2034 409 
Q 2525 409 2770 889 
Q 3016 1369 3016 2328 
Q 3016 3291 2770 3770 
Q 2525 4250 2034 4250 
z
M 2034 4750 
Q 2819 4750 3233 4129 
Q 3647 3509 3647 2328 
Q 3647 1150 3233 529 
Q 2819 -91 2034 -91 
Q 1250 -91 836 529 
Q 422 1150 422 2328 
Q 422 3509 836 4129 
Q 1250 4750 2034 4750 
z
" transform="scale(0.015625)"/>
       </defs>
       <use xlink:href="#DejaVuSans-31"/>
       <use xlink:href="#DejaVuSans-30" x="63.623047"/>
      </g>
     </g>
    </g>
    <g id="text_8">
     <!-- k -->
     <g transform="translate(304.44728 418.316562) scale(0.1 -0.1)">
      <defs>
       <path id="DejaVuSans-6b" d="M 581 4863 
L 1159 4863 
L 1159 1991 
L 2875 3500 
L 3609 3500 
L 1753 1863 
L 3688 0 
L 2938 0 
L 1159 1709 
L 1159 0 
L 581 0 
L 581 4863 
z
" transform="scale(0.015625)"/>
      </defs>
      <use xlink:href="#DejaVuSans-6b"/>
     </g>
    </g>
   </g>
   <g id="matplotlib.axis_2">
    <g id="ytick_1">
     <g id="line2d_15">
      <path d="M 49.485185 294.342699 
L 565.2 294.342699 
" clip-path="url(#pd0b98dcdc3)" style="fill: none; stroke: #b0b0b0; stroke-width: 0.8; stroke-linecap: square"/>
     </g>
     <g id="line2d_16">
      <defs>
       <path id="mad81788836" d="M 0 0 
L -3.5 0 
" style="stroke: #000000; stroke-width: 0.8"/>
      </defs>
      <g>
       <use xlink:href="#mad81788836" x="49.485185" y="294.342699" style="stroke: #000000; stroke-width: 0.8"/>
      </g>
     </g>
     <g id="text_9">
      <!-- $\mathdefault{10^{2}}$ -->
      <g transform="translate(24.885185 298.141917) scale(0.1 -0.1)">
       <defs>
        <path id="DejaVuSans-32" d="M 1228 531 
L 3431 531 
L 3431 0 
L 469 0 
L 469 531 
Q 828 903 1448 1529 
Q 2069 2156 2228 2338 
Q 2531 2678 2651 2914 
Q 2772 3150 2772 3378 
Q 2772 3750 2511 3984 
Q 2250 4219 1831 4219 
Q 1534 4219 1204 4116 
Q 875 4013 500 3803 
L 500 4441 
Q 881 4594 1212 4672 
Q 1544 4750 1819 4750 
Q 2544 4750 2975 4387 
Q 3406 4025 3406 3419 
Q 3406 3131 3298 2873 
Q 3191 2616 2906 2266 
Q 2828 2175 2409 1742 
Q 1991 1309 1228 531 
z
" transform="scale(0.015625)"/>
       </defs>
       <use xlink:href="#DejaVuSans-31" transform="translate(0 0.765625)"/>
       <use xlink:href="#DejaVuSans-30" transform="translate(63.623047 0.765625)"/>
       <use xlink:href="#DejaVuSans-32" transform="translate(128.203125 39.046875) scale(0.7)"/>
      </g>
     </g>
    </g>
    <g id="ytick_2">
     <g id="line2d_17">
      <path d="M 49.485185 184.507474 
L 565.2 184.507474 
" clip-path="url(#pd0b98dcdc3)" style="fill: none; stroke: #b0b0b0; stroke-width: 0.8; stroke-linecap: square"/>
     </g>
     <g id="line2d_18">
      <g>
       <use xlink:href="#mad81788836" x="49.485185" y="184.507474" style="stroke: #000000; stroke-width: 0.8"/>
      </g>
     </g>
     <g id="text_10">
      <!-- $\mathdefault{10^{3}}$ -->
      <g transform="translate(24.885185 188.306693) scale(0.1 -0.1)">
       <defs>
        <path id="DejaVuSans-33" d="M 2597 2516 
Q 3050 2419 3304 2112 
Q 3559 1806 3559 1356 
Q 3559 666 3084 287 
Q 2609 -91 1734 -91 
Q 1441 -91 1130 -33 
Q 819 25 488 141 
L 488 750 
Q 750 597 1062 519 
Q 1375 441 1716 441 
Q 2309 441 2620 675 
Q 2931 909 2931 1356 
Q 2931 1769 2642 2001 
Q 2353 2234 1838 2234 
L 1294 2234 
L 1294 2753 
L 1863 2753 
Q 2328 2753 2575 2939 
Q 2822 3125 2822 3475 
Q 2822 3834 2567 4026 
Q 2313 4219 1838 4219 
Q 1578 4219 1281 4162 
Q 984 4106 628 3988 
L 628 4550 
Q 988 4650 1302 4700 
Q 1616 4750 1894 4750 
Q 2613 4750 3031 4423 
Q 3450 4097 3450 3541 
Q 3450 3153 3228 2886 
Q 3006 2619 2597 2516 
z
" transform="scale(0.015625)"/>
       </defs>
       <use xlink:href="#DejaVuSans-31" transform="translate(0 0.765625)"/>
       <use xlink:href="#DejaVuSans-30" transform="translate(63.623047 0.765625)"/>
       <use xlink:href="#DejaVuSans-33" transform="translate(128.203125 39.046875) scale(0.7)"/>
      </g>
     </g>
    </g>
    <g id="ytick_3">
     <g id="line2d_19">
      <path d="M 49.485185 74.672249 
L 565.2 74.672249 
" clip-path="url(#pd0b98dcdc3)" style="fill: none; stroke: #b0b0b0; stroke-width: 0.8; stroke-linecap: square"/>
     </g>
     <g id="line2d_20">
      <g>
       <use xlink:href="#mad81788836" x="49.485185" y="74.672249" style="stroke: #000000; stroke-width: 0.8"/>
      </g>
     </g>
     <g id="text_11">
      <!-- $\mathdefault{10^{4}}$ -->
      <g transform="translate(24.885185 78.471468) scale(0.1 -0.1)">
       <use xlink:href="#DejaVuSans-31" transform="translate(0 0.684375)"/>
       <use xlink:href="#DejaVuSans-30" transform="translate(63.623047 0.684375)"/>
       <use xlink:href="#DejaVuSans-34" transform="translate(128.203125 38.965625) scale(0.7)"/>
      </g>
     </g>
    </g>
    <g id="ytick_4">
     <g id="line2d_21">
      <defs>
       <path id="m369603d1b2" d="M 0 0 
L -2 0 
" style="stroke: #000000; stroke-width: 0.6"/>
      </defs>
      <g>
       <use xlink:href="#m369603d1b2" x="49.485185" y="371.114226" style="stroke: #000000; stroke-width: 0.6"/>
      </g>
     </g>
    </g>
    <g id="ytick_5">
     <g id="line2d_22">
      <g>
       <use xlink:href="#m369603d1b2" x="49.485185" y="351.773203" style="stroke: #000000; stroke-width: 0.6"/>
      </g>
     </g>
    </g>
    <g id="ytick_6">
     <g id="line2d_23">
      <g>
       <use xlink:href="#m369603d1b2" x="49.485185" y="338.050529" style="stroke: #000000; stroke-width: 0.6"/>
      </g>
     </g>
    </g>
    <g id="ytick_7">
     <g id="line2d_24">
      <g>
       <use xlink:href="#m369603d1b2" x="49.485185" y="327.406396" style="stroke: #000000; stroke-width: 0.6"/>
      </g>
     </g>
    </g>
    <g id="ytick_8">
     <g id="line2d_25">
      <g>
       <use xlink:href="#m369603d1b2" x="49.485185" y="318.709506" style="stroke: #000000; stroke-width: 0.6"/>
      </g>
     </g>
    </g>
    <g id="ytick_9">
     <g id="line2d_26">
      <g>
       <use xlink:href="#m369603d1b2" x="49.485185" y="311.35639" style="stroke: #000000; stroke-width: 0.6"/>
      </g>
     </g>
    </g>
    <g id="ytick_10">
     <g id="line2d_27">
      <g>
       <use xlink:href="#m369603d1b2" x="49.485185" y="304.986832" style="stroke: #000000; stroke-width: 0.6"/>
      </g>
     </g>
    </g>
    <g id="ytick_11">
     <g id="line2d_28">
      <g>
       <use xlink:href="#m369603d1b2" x="49.485185" y="299.368483" style="stroke: #000000; stroke-width: 0.6"/>
      </g>
     </g>
    </g>
    <g id="ytick_12">
     <g id="line2d_29">
      <g>
       <use xlink:href="#m369603d1b2" x="49.485185" y="261.279001" style="stroke: #000000; stroke-width: 0.6"/>
      </g>
     </g>
    </g>
    <g id="ytick_13">
     <g id="line2d_30">
      <g>
       <use xlink:href="#m369603d1b2" x="49.485185" y="241.937978" style="stroke: #000000; stroke-width: 0.6"/>
      </g>
     </g>
    </g>
    <g id="ytick_14">
     <g id="line2d_31">
      <g>
       <use xlink:href="#m369603d1b2" x="49.485185" y="228.215304" style="stroke: #000000; stroke-width: 0.6"/>
      </g>
     </g>
    </g>
    <g id="ytick_15">
     <g id="line2d_32">
      <g>
       <use xlink:href="#m369603d1b2" x="49.485185" y="217.571171" style="stroke: #000000; stroke-width: 0.6"/>
      </g>
     </g>
    </g>
    <g id="ytick_16">
     <g id="line2d_33">
      <g>
       <use xlink:href="#m369603d1b2" x="49.485185" y="208.874281" style="stroke: #000000; stroke-width: 0.6"/>
      </g>
     </g>
    </g>
    <g id="ytick_17">
     <g id="line2d_34">
      <g>
       <use xlink:href="#m369603d1b2" x="49.485185" y="201.521165" style="stroke: #000000; stroke-width: 0.6"/>
      </g>
     </g>
    </g>
    <g id="ytick_18">
     <g id="line2d_35">
      <g>
       <use xlink:href="#m369603d1b2" x="49.485185" y="195.151607" style="stroke: #000000; stroke-width: 0.6"/>
      </g>
     </g>
    </g>
    <g id="ytick_19">
     <g id="line2d_36">
      <g>
       <use xlink:href="#m369603d1b2" x="49.485185" y="189.533258" style="stroke: #000000; stroke-width: 0.6"/>
      </g>
     </g>
    </g>
    <g id="ytick_20">
     <g id="line2d_37">
      <g>
       <use xlink:href="#m369603d1b2" x="49.485185" y="151.443777" style="stroke: #000000; stroke-width: 0.6"/>
      </g>
     </g>
    </g>
    <g id="ytick_21">
     <g id="line2d_38">
      <g>
       <use xlink:href="#m369603d1b2" x="49.485185" y="132.102754" style="stroke: #000000; stroke-width: 0.6"/>
      </g>
     </g>
    </g>
    <g id="ytick_22">
     <g id="line2d_39">
      <g>
       <use xlink:href="#m369603d1b2" x="49.485185" y="118.38008" style="stroke: #000000; stroke-width: 0.6"/>
      </g>
     </g>
    </g>
    <g id="ytick_23">
     <g id="line2d_40">
      <g>
       <use xlink:href="#m369603d1b2" x="49.485185" y="107.735946" style="stroke: #000000; stroke-width: 0.6"/>
      </g>
     </g>
    </g>
    <g id="ytick_24">
     <g id="line2d_41">
      <g>
       <use xlink:href="#m369603d1b2" x="49.485185" y="99.039057" style="stroke: #000000; stroke-width: 0.6"/>
      </g>
     </g>
    </g>
    <g id="ytick_25">
     <g id="line2d_42">
      <g>
       <use xlink:href="#m369603d1b2" x="49.485185" y="91.685941" style="stroke: #000000; stroke-width: 0.6"/>
      </g>
     </g>
    </g>
    <g id="ytick_26">
     <g id="line2d_43">
      <g>
       <use xlink:href="#m369603d1b2" x="49.485185" y="85.316382" style="stroke: #000000; stroke-width: 0.6"/>
      </g>
     </g>
    </g>
    <g id="ytick_27">
     <g id="line2d_44">
      <g>
       <use xlink:href="#m369603d1b2" x="49.485185" y="79.698034" style="stroke: #000000; stroke-width: 0.6"/>
      </g>
     </g>
    </g>
    <g id="ytick_28">
     <g id="line2d_45">
      <g>
       <use xlink:href="#m369603d1b2" x="49.485185" y="41.608552" style="stroke: #000000; stroke-width: 0.6"/>
      </g>
     </g>
    </g>
    <g id="text_12">
     <!-- Runtime (ms) -->
     <g transform="translate(18.805497 241.948437) rotate(-90) scale(0.1 -0.1)">
      <defs>
       <path id="DejaVuSans-52" d="M 2841 2188 
Q 3044 2119 3236 1894 
Q 3428 1669 3622 1275 
L 4263 0 
L 3584 0 
L 2988 1197 
Q 2756 1666 2539 1819 
Q 2322 1972 1947 1972 
L 1259 1972 
L 1259 0 
L 628 0 
L 628 4666 
L 2053 4666 
Q 2853 4666 3247 4331 
Q 3641 3997 3641 3322 
Q 3641 2881 3436 2590 
Q 3231 2300 2841 2188 
z
M 1259 4147 
L 1259 2491 
L 2053 2491 
Q 2509 2491 2742 2702 
Q 2975 2913 2975 3322 
Q 2975 3731 2742 3939 
Q 2509 4147 2053 4147 
L 1259 4147 
z
" transform="scale(0.015625)"/>
       <path id="DejaVuSans-75" d="M 544 1381 
L 544 3500 
L 1119 3500 
L 1119 1403 
Q 1119 906 1312 657 
Q 1506 409 1894 409 
Q 2359 409 2629 706 
Q 2900 1003 2900 1516 
L 2900 3500 
L 3475 3500 
L 3475 0 
L 2900 0 
L 2900 538 
Q 2691 219 2414 64 
Q 2138 -91 1772 -91 
Q 1169 -91 856 284 
Q 544 659 544 1381 
z
M 1991 3584 
L 1991 3584 
z
" transform="scale(0.015625)"/>
       <path id="DejaVuSans-6e" d="M 3513 2113 
L 3513 0 
L 2938 0 
L 2938 2094 
Q 2938 2591 2744 2837 
Q 2550 3084 2163 3084 
Q 1697 3084 1428 2787 
Q 1159 2491 1159 1978 
L 1159 0 
L 581 0 
L 581 3500 
L 1159 3500 
L 1159 2956 
Q 1366 3272 1645 3428 
Q 1925 3584 2291 3584 
Q 2894 3584 3203 3211 
Q 3513 2838 3513 2113 
z
" transform="scale(0.015625)"/>
       <path id="DejaVuSans-74" d="M 1172 4494 
L 1172 3500 
L 2356 3500 
L 2356 3053 
L 1172 3053 
L 1172 1153 
Q 1172 725 1289 603 
Q 1406 481 1766 481 
L 2356 481 
L 2356 0 
L 1766 0 
Q 1100 0 847 248 
Q 594 497 594 1153 
L 594 3053 
L 172 3053 
L 172 3500 
L 594 3500 
L 594 4494 
L 1172 4494 
z
" transform="scale(0.015625)"/>
       <path id="DejaVuSans-69" d="M 603 3500 
L 1178 3500 
L 1178 0 
L 603 0 
L 603 3500 
z
M 603 4863 
L 1178 4863 
L 1178 4134 
L 603 4134 
L 603 4863 
z
" transform="scale(0.015625)"/>
       <path id="DejaVuSans-6d" d="M 3328 2828 
Q 3544 3216 3844 3400 
Q 4144 3584 4550 3584 
Q 5097 3584 5394 3201 
Q 5691 2819 5691 2113 
L 5691 0 
L 5113 0 
L 5113 2094 
Q 5113 2597 4934 2840 
Q 4756 3084 4391 3084 
Q 3944 3084 3684 2787 
Q 3425 2491 3425 1978 
L 3425 0 
L 2847 0 
L 2847 2094 
Q 2847 2600 2669 2842 
Q 2491 3084 2119 3084 
Q 1678 3084 1418 2786 
Q 1159 2488 1159 1978 
L 1159 0 
L 581 0 
L 581 3500 
L 1159 3500 
L 1159 2956 
Q 1356 3278 1631 3431 
Q 1906 3584 2284 3584 
Q 2666 3584 2933 3390 
Q 3200 3197 3328 2828 
z
" transform="scale(0.015625)"/>
       <path id="DejaVuSans-65" d="M 3597 1894 
L 3597 1613 
L 953 1613 
Q 991 1019 1311 708 
Q 1631 397 2203 397 
Q 2534 397 2845 478 
Q 3156 559 3463 722 
L 3463 178 
Q 3153 47 2828 -22 
Q 2503 -91 2169 -91 
Q 1331 -91 842 396 
Q 353 884 353 1716 
Q 353 2575 817 3079 
Q 1281 3584 2069 3584 
Q 2775 3584 3186 3129 
Q 3597 2675 3597 1894 
z
M 3022 2063 
Q 3016 2534 2758 2815 
Q 2500 3097 2075 3097 
Q 1594 3097 1305 2825 
Q 1016 2553 972 2059 
L 3022 2063 
z
" transform="scale(0.015625)"/>
       <path id="DejaVuSans-20" transform="scale(0.015625)"/>
       <path id="DejaVuSans-28" d="M 1984 4856 
Q 1566 4138 1362 3434 
Q 1159 2731 1159 2009 
Q 1159 1288 1364 580 
Q 1569 -128 1984 -844 
L 1484 -844 
Q 1016 -109 783 600 
Q 550 1309 550 2009 
Q 550 2706 781 3412 
Q 1013 4119 1484 4856 
L 1984 4856 
z
" transform="scale(0.015625)"/>
       <path id="DejaVuSans-73" d="M 2834 3397 
L 2834 2853 
Q 2591 2978 2328 3040 
Q 2066 3103 1784 3103 
Q 1356 3103 1142 2972 
Q 928 2841 928 2578 
Q 928 2378 1081 2264 
Q 1234 2150 1697 2047 
L 1894 2003 
Q 2506 1872 2764 1633 
Q 3022 1394 3022 966 
Q 3022 478 2636 193 
Q 2250 -91 1575 -91 
Q 1294 -91 989 -36 
Q 684 19 347 128 
L 347 722 
Q 666 556 975 473 
Q 1284 391 1588 391 
Q 1994 391 2212 530 
Q 2431 669 2431 922 
Q 2431 1156 2273 1281 
Q 2116 1406 1581 1522 
L 1381 1569 
Q 847 1681 609 1914 
Q 372 2147 372 2553 
Q 372 3047 722 3315 
Q 1072 3584 1716 3584 
Q 2034 3584 2315 3537 
Q 2597 3491 2834 3397 
z
" transform="scale(0.015625)"/>
       <path id="DejaVuSans-29" d="M 513 4856 
L 1013 4856 
Q 1481 4119 1714 3412 
Q 1947 2706 1947 2009 
Q 1947 1309 1714 600 
Q 1481 -109 1013 -844 
L 513 -844 
Q 928 -128 1133 580 
Q 1338 1288 1338 2009 
Q 1338 2731 1133 3434 
Q 928 4138 513 4856 
z
" transform="scale(0.015625)"/>
      </defs>
      <use xlink:href="#DejaVuSans-52"/>
      <use xlink:href="#DejaVuSans-75" x="64.982422"/>
      <use xlink:href="#DejaVuSans-6e" x="128.361328"/>
      <use xlink:href="#DejaVuSans-74" x="191.740234"/>
      <use xlink:href="#DejaVuSans-69" x="230.949219"/>
      <use xlink:href="#DejaVuSans-6d" x="258.732422"/>
      <use xlink:href="#DejaVuSans-65" x="356.144531"/>
      <use xlink:href="#DejaVuSans-20" x="417.667969"/>
      <use xlink:href="#DejaVuSans-28" x="449.455078"/>
      <use xlink:href="#DejaVuSans-6d" x="488.46875"/>
      <use xlink:href="#DejaVuSans-73" x="585.880859"/>
      <use xlink:href="#DejaVuSans-29" x="637.980469"/>
     </g>
    </g>
   </g>
   <g id="LineCollection_1">
    <path d="M 72.926767 373.5 
L 72.926767 371.124474 
" clip-path="url(#pd0b98dcdc3)" style="fill: none; stroke: #1f77b4; stroke-width: 1.5"/>
    <path d="M 151.065376 328.123832 
L 151.065376 326.362391 
" clip-path="url(#pd0b98dcdc3)" style="fill: none; stroke: #1f77b4; stroke-width: 1.5"/>
    <path d="M 229.203984 331.535591 
L 229.203984 330.049682 
" clip-path="url(#pd0b98dcdc3)" style="fill: none; stroke: #1f77b4; stroke-width: 1.5"/>
    <path d="M 307.342592 273.696297 
L 307.342592 270.922031 
" clip-path="url(#pd0b98dcdc3)" style="fill: none; stroke: #1f77b4; stroke-width: 1.5"/>
    <path d="M 385.481201 273.861812 
L 385.481201 272.721488 
" clip-path="url(#pd0b98dcdc3)" style="fill: none; stroke: #1f77b4; stroke-width: 1.5"/>
    <path d="M 463.619809 216.553656 
L 463.619809 215.40645 
" clip-path="url(#pd0b98dcdc3)" style="fill: none; stroke: #1f77b4; stroke-width: 1.5"/>
    <path d="M 541.758417 209.084903 
L 541.758417 207.477854 
" clip-path="url(#pd0b98dcdc3)" style="fill: none; stroke: #1f77b4; stroke-width: 1.5"/>
   </g>
   <g id="line2d_46">
    <defs>
     <path id="m26ee2978d4" d="M 5 0 
L -5 -0 
" style="stroke: #1f77b4"/>
    </defs>
    <g clip-path="url(#pd0b98dcdc3)">
     <use xlink:href="#m26ee2978d4" x="72.926767" y="373.5" style="fill: #1f77b4; stroke: #1f77b4"/>
     <use xlink:href="#m26ee2978d4" x="151.065376" y="328.123832" style="fill: #1f77b4; stroke: #1f77b4"/>
     <use xlink:href="#m26ee2978d4" x="229.203984" y="331.535591" style="fill: #1f77b4; stroke: #1f77b4"/>
     <use xlink:href="#m26ee2978d4" x="307.342592" y="273.696297" style="fill: #1f77b4; stroke: #1f77b4"/>
     <use xlink:href="#m26ee2978d4" x="385.481201" y="273.861812" style="fill: #1f77b4; stroke: #1f77b4"/>
     <use xlink:href="#m26ee2978d4" x="463.619809" y="216.553656" style="fill: #1f77b4; stroke: #1f77b4"/>
     <use xlink:href="#m26ee2978d4" x="541.758417" y="209.084903" style="fill: #1f77b4; stroke: #1f77b4"/>
    </g>
   </g>
   <g id="line2d_47">
    <g clip-path="url(#pd0b98dcdc3)">
     <use xlink:href="#m26ee2978d4" x="72.926767" y="371.124474" style="fill: #1f77b4; stroke: #1f77b4"/>
     <use xlink:href="#m26ee2978d4" x="151.065376" y="326.362391" style="fill: #1f77b4; stroke: #1f77b4"/>
     <use xlink:href="#m26ee2978d4" x="229.203984" y="330.049682" style="fill: #1f77b4; stroke: #1f77b4"/>
     <use xlink:href="#m26ee2978d4" x="307.342592" y="270.922031" style="fill: #1f77b4; stroke: #1f77b4"/>
     <use xlink:href="#m26ee2978d4" x="385.481201" y="272.721488" style="fill: #1f77b4; stroke: #1f77b4"/>
     <use xlink:href="#m26ee2978d4" x="463.619809" y="215.40645" style="fill: #1f77b4; stroke: #1f77b4"/>
     <use xlink:href="#m26ee2978d4" x="541.758417" y="207.477854" style="fill: #1f77b4; stroke: #1f77b4"/>
    </g>
   </g>
   <g id="LineCollection_2">
    <path d="M 72.926767 315.984691 
L 72.926767 305.488327 
" clip-path="url(#pd0b98dcdc3)" style="fill: none; stroke: #ff7f0e; stroke-width: 1.5"/>
    <path d="M 151.065376 266.823749 
L 151.065376 266.02689 
" clip-path="url(#pd0b98dcdc3)" style="fill: none; stroke: #ff7f0e; stroke-width: 1.5"/>
    <path d="M 229.203984 226.434068 
L 229.203984 218.111437 
" clip-path="url(#pd0b98dcdc3)" style="fill: none; stroke: #ff7f0e; stroke-width: 1.5"/>
    <path d="M 307.342592 223.526369 
L 307.342592 218.744223 
" clip-path="url(#pd0b98dcdc3)" style="fill: none; stroke: #ff7f0e; stroke-width: 1.5"/>
    <path d="M 385.481201 171.337059 
L 385.481201 166.944494 
" clip-path="url(#pd0b98dcdc3)" style="fill: none; stroke: #ff7f0e; stroke-width: 1.5"/>
    <path d="M 463.619809 118.058974 
L 463.619809 113.664223 
" clip-path="url(#pd0b98dcdc3)" style="fill: none; stroke: #ff7f0e; stroke-width: 1.5"/>
    <path d="M 541.758417 117.331352 
L 541.758417 115.765501 
" clip-path="url(#pd0b98dcdc3)" style="fill: none; stroke: #ff7f0e; stroke-width: 1.5"/>
   </g>
   <g id="line2d_48">
    <defs>
     <path id="me84821ca53" d="M 5 0 
L -5 -0 
" style="stroke: #ff7f0e"/>
    </defs>
    <g clip-path="url(#pd0b98dcdc3)">
     <use xlink:href="#me84821ca53" x="72.926767" y="315.984691" style="fill: #ff7f0e; stroke: #ff7f0e"/>
     <use xlink:href="#me84821ca53" x="151.065376" y="266.823749" style="fill: #ff7f0e; stroke: #ff7f0e"/>
     <use xlink:href="#me84821ca53" x="229.203984" y="226.434068" style="fill: #ff7f0e; stroke: #ff7f0e"/>
     <use xlink:href="#me84821ca53" x="307.342592" y="223.526369" style="fill: #ff7f0e; stroke: #ff7f0e"/>
     <use xlink:href="#me84821ca53" x="385.481201" y="171.337059" style="fill: #ff7f0e; stroke: #ff7f0e"/>
     <use xlink:href="#me84821ca53" x="463.619809" y="118.058974" style="fill: #ff7f0e; stroke: #ff7f0e"/>
     <use xlink:href="#me84821ca53" x="541.758417" y="117.331352" style="fill: #ff7f0e; stroke: #ff7f0e"/>
    </g>
   </g>
   <g id="line2d_49">
    <g clip-path="url(#pd0b98dcdc3)">
     <use xlink:href="#me84821ca53" x="72.926767" y="305.488327" style="fill: #ff7f0e; stroke: #ff7f0e"/>
     <use xlink:href="#me84821ca53" x="151.065376" y="266.02689" style="fill: #ff7f0e; stroke: #ff7f0e"/>
     <use xlink:href="#me84821ca53" x="229.203984" y="218.111437" style="fill: #ff7f0e; stroke: #ff7f0e"/>
     <use xlink:href="#me84821ca53" x="307.342592" y="218.744223" style="fill: #ff7f0e; stroke: #ff7f0e"/>
     <use xlink:href="#me84821ca53" x="385.481201" y="166.944494" style="fill: #ff7f0e; stroke: #ff7f0e"/>
     <use xlink:href="#me84821ca53" x="463.619809" y="113.664223" style="fill: #ff7f0e; stroke: #ff7f0e"/>
     <use xlink:href="#me84821ca53" x="541.758417" y="115.765501" style="fill: #ff7f0e; stroke: #ff7f0e"/>
    </g>
   </g>
   <g id="LineCollection_3">
    <path d="M 72.926767 249.33565 
L 72.926767 242.576943 
" clip-path="url(#pd0b98dcdc3)" style="fill: none; stroke: #2ca02c; stroke-width: 1.5"/>
    <path d="M 151.065376 250.417019 
L 151.065376 235.223935 
" clip-path="url(#pd0b98dcdc3)" style="fill: none; stroke: #2ca02c; stroke-width: 1.5"/>
    <path d="M 229.203984 200.828598 
L 229.203984 198.885906 
" clip-path="url(#pd0b98dcdc3)" style="fill: none; stroke: #2ca02c; stroke-width: 1.5"/>
    <path d="M 307.342592 149.738841 
L 307.342592 145.682432 
" clip-path="url(#pd0b98dcdc3)" style="fill: none; stroke: #2ca02c; stroke-width: 1.5"/>
    <path d="M 385.481201 99.948115 
L 385.481201 95.231306 
" clip-path="url(#pd0b98dcdc3)" style="fill: none; stroke: #2ca02c; stroke-width: 1.5"/>
    <path d="M 463.619809 97.447363 
L 463.619809 96.549624 
" clip-path="url(#pd0b98dcdc3)" style="fill: none; stroke: #2ca02c; stroke-width: 1.5"/>
    <path d="M 541.758417 49.864264 
L 541.758417 42.7 
" clip-path="url(#pd0b98dcdc3)" style="fill: none; stroke: #2ca02c; stroke-width: 1.5"/>
   </g>
   <g id="line2d_50">
    <defs>
     <path id="m798885d53b" d="M 5 0 
L -5 -0 
" style="stroke: #2ca02c"/>
    </defs>
    <g clip-path="url(#pd0b98dcdc3)">
     <use xlink:href="#m798885d53b" x="72.926767" y="249.33565" style="fill: #2ca02c; stroke: #2ca02c"/>
     <use xlink:href="#m798885d53b" x="151.065376" y="250.417019" style="fill: #2ca02c; stroke: #2ca02c"/>
     <use xlink:href="#m798885d53b" x="229.203984" y="200.828598" style="fill: #2ca02c; stroke: #2ca02c"/>
     <use xlink:href="#m798885d53b" x="307.342592" y="149.738841" style="fill: #2ca02c; stroke: #2ca02c"/>
     <use xlink:href="#m798885d53b" x="385.481201" y="99.948115" style="fill: #2ca02c; stroke: #2ca02c"/>
     <use xlink:href="#m798885d53b" x="463.619809" y="97.447363" style="fill: #2ca02c; stroke: #2ca02c"/>
     <use xlink:href="#m798885d53b" x="541.758417" y="49.864264" style="fill: #2ca02c; stroke: #2ca02c"/>
    </g>
   </g>
   <g id="line2d_51">
    <g clip-path="url(#pd0b98dcdc3)">
     <use xlink:href="#m798885d53b" x="72.926767" y="242.576943" style="fill: #2ca02c; stroke: #2ca02c"/>
     <use xlink:href="#m798885d53b" x="151.065376" y="235.223935" style="fill: #2ca02c; stroke: #2ca02c"/>
     <use xlink:href="#m798885d53b" x="229.203984" y="198.885906" style="fill: #2ca02c; stroke: #2ca02c"/>
     <use xlink:href="#m798885d53b" x="307.342592" y="145.682432" style="fill: #2ca02c; stroke: #2ca02c"/>
     <use xlink:href="#m798885d53b" x="385.481201" y="95.231306" style="fill: #2ca02c; stroke: #2ca02c"/>
     <use xlink:href="#m798885d53b" x="463.619809" y="96.549624" style="fill: #2ca02c; stroke: #2ca02c"/>
     <use xlink:href="#m798885d53b" x="541.758417" y="42.7" style="fill: #2ca02c; stroke: #2ca02c"/>
    </g>
   </g>
   <g id="line2d_52">
    <path d="M 72.926767 372.297451 
L 151.065376 327.234981 
L 229.203984 330.786851 
L 307.342592 272.288998 
L 385.481201 273.288243 
L 463.619809 215.976604 
L 541.758417 208.274611 
" clip-path="url(#pd0b98dcdc3)" style="fill: none; stroke: #1f77b4; stroke-width: 1.5; stroke-linecap: square"/>
    <defs>
     <path id="mc2e0f0b0f7" d="M 0 3 
C 0.795609 3 1.55874 2.683901 2.12132 2.12132 
C 2.683901 1.55874 3 0.795609 3 0 
C 3 -0.795609 2.683901 -1.55874 2.12132 -2.12132 
C 1.55874 -2.683901 0.795609 -3 0 -3 
C -0.795609 -3 -1.55874 -2.683901 -2.12132 -2.12132 
C -2.683901 -1.55874 -3 -0.795609 -3 0 
C -3 0.795609 -2.683901 1.55874 -2.12132 2.12132 
C -1.55874 2.683901 -0.795609 3 0 3 
z
" style="stroke: #1f77b4"/>
    </defs>
    <g clip-path="url(#pd0b98dcdc3)">
     <use xlink:href="#mc2e0f0b0f7" x="72.926767" y="372.297451" style="fill: #1f77b4; stroke: #1f77b4"/>
     <use xlink:href="#mc2e0f0b0f7" x="151.065376" y="327.234981" style="fill: #1f77b4; stroke: #1f77b4"/>
     <use xlink:href="#mc2e0f0b0f7" x="229.203984" y="330.786851" style="fill: #1f77b4; stroke: #1f77b4"/>
     <use xlink:href="#mc2e0f0b0f7" x="307.342592" y="272.288998" style="fill: #1f77b4; stroke: #1f77b4"/>
     <use xlink:href="#mc2e0f0b0f7" x="385.481201" y="273.288243" style="fill: #1f77b4; stroke: #1f77b4"/>
     <use xlink:href="#mc2e0f0b0f7" x="463.619809" y="215.976604" style="fill: #1f77b4; stroke: #1f77b4"/>
     <use xlink:href="#mc2e0f0b0f7" x="541.758417" y="208.274611" style="fill: #1f77b4; stroke: #1f77b4"/>
    </g>
   </g>
   <g id="line2d_53">
    <path d="M 72.926767 310.44838 
L 151.065376 266.423656 
L 229.203984 222.09147 
L 307.342592 221.075393 
L 385.481201 169.090233 
L 463.619809 115.811005 
L 541.758417 116.542002 
" clip-path="url(#pd0b98dcdc3)" style="fill: none; stroke: #ff7f0e; stroke-width: 1.5; stroke-linecap: square"/>
    <defs>
     <path id="m72c3dd43b5" d="M 0 3 
C 0.795609 3 1.55874 2.683901 2.12132 2.12132 
C 2.683901 1.55874 3 0.795609 3 0 
C 3 -0.795609 2.683901 -1.55874 2.12132 -2.12132 
C 1.55874 -2.683901 0.795609 -3 0 -3 
C -0.795609 -3 -1.55874 -2.683901 -2.12132 -2.12132 
C -2.683901 -1.55874 -3 -0.795609 -3 0 
C -3 0.795609 -2.683901 1.55874 -2.12132 2.12132 
C -1.55874 2.683901 -0.795609 3 0 3 
z
" style="stroke: #ff7f0e"/>
    </defs>
    <g clip-path="url(#pd0b98dcdc3)">
     <use xlink:href="#m72c3dd43b5" x="72.926767" y="310.44838" style="fill: #ff7f0e; stroke: #ff7f0e"/>
     <use xlink:href="#m72c3dd43b5" x="151.065376" y="266.423656" style="fill: #ff7f0e; stroke: #ff7f0e"/>
     <use xlink:href="#m72c3dd43b5" x="229.203984" y="222.09147" style="fill: #ff7f0e; stroke: #ff7f0e"/>
     <use xlink:href="#m72c3dd43b5" x="307.342592" y="221.075393" style="fill: #ff7f0e; stroke: #ff7f0e"/>
     <use xlink:href="#m72c3dd43b5" x="385.481201" y="169.090233" style="fill: #ff7f0e; stroke: #ff7f0e"/>
     <use xlink:href="#m72c3dd43b5" x="463.619809" y="115.811005" style="fill: #ff7f0e; stroke: #ff7f0e"/>
     <use xlink:href="#m72c3dd43b5" x="541.758417" y="116.542002" style="fill: #ff7f0e; stroke: #ff7f0e"/>
    </g>
   </g>
   <g id="line2d_54">
    <path d="M 72.926767 245.836692 
L 151.065376 242.218128 
L 229.203984 199.847363 
L 307.342592 147.66753 
L 385.481201 97.531433 
L 463.619809 96.996381 
L 541.758417 46.147757 
" clip-path="url(#pd0b98dcdc3)" style="fill: none; stroke: #2ca02c; stroke-width: 1.5; stroke-linecap: square"/>
    <defs>
     <path id="m46672bdf05" d="M 0 3 
C 0.795609 3 1.55874 2.683901 2.12132 2.12132 
C 2.683901 1.55874 3 0.795609 3 0 
C 3 -0.795609 2.683901 -1.55874 2.12132 -2.12132 
C 1.55874 -2.683901 0.795609 -3 0 -3 
C -0.795609 -3 -1.55874 -2.683901 -2.12132 -2.12132 
C -2.683901 -1.55874 -3 -0.795609 -3 0 
C -3 0.795609 -2.683901 1.55874 -2.12132 2.12132 
C -1.55874 2.683901 -0.795609 3 0 3 
z
" style="stroke: #2ca02c"/>
    </defs>
    <g clip-path="url(#pd0b98dcdc3)">
     <use xlink:href="#m46672bdf05" x="72.926767" y="245.836692" style="fill: #2ca02c; stroke: #2ca02c"/>
     <use xlink:href="#m46672bdf05" x="151.065376" y="242.218128" style="fill: #2ca02c; stroke: #2ca02c"/>
     <use xlink:href="#m46672bdf05" x="229.203984" y="199.847363" style="fill: #2ca02c; stroke: #2ca02c"/>
     <use xlink:href="#m46672bdf05" x="307.342592" y="147.66753" style="fill: #2ca02c; stroke: #2ca02c"/>
     <use xlink:href="#m46672bdf05" x="385.481201" y="97.531433" style="fill: #2ca02c; stroke: #2ca02c"/>
     <use xlink:href="#m46672bdf05" x="463.619809" y="96.996381" style="fill: #2ca02c; stroke: #2ca02c"/>
     <use xlink:href="#m46672bdf05" x="541.758417" y="46.147757" style="fill: #2ca02c; stroke: #2ca02c"/>
    </g>
   </g>
   <g id="patch_3">
    <path d="M 49.485185 390.04 
L 49.485185 26.16 
" style="fill: none; stroke: #000000; stroke-width: 0.8; stroke-linejoin: miter; stroke-linecap: square"/>
   </g>
   <g id="patch_4">
    <path d="M 565.2 390.04 
L 565.2 26.16 
" style="fill: none; stroke: #000000; stroke-width: 0.8; stroke-linejoin: miter; stroke-linecap: square"/>
   </g>
   <g id="patch_5">
    <path d="M 49.485185 390.04 
L 565.2 390.04 
" style="fill: none; stroke: #000000; stroke-width: 0.8; stroke-linejoin: miter; stroke-linecap: square"/>
   </g>
   <g id="patch_6">
    <path d="M 49.485185 26.16 
L 565.2 26.16 
" style="fill: none; stroke: #000000; stroke-width: 0.8; stroke-linejoin: miter; stroke-linecap: square"/>
   </g>
   <g id="text_13">
    <!-- Undirected: Runtime vs k -->
    <g transform="translate(231.54478 20.16) scale(0.12 -0.12)">
     <defs>
      <path id="DejaVuSans-55" d="M 556 4666 
L 1191 4666 
L 1191 1831 
Q 1191 1081 1462 751 
Q 1734 422 2344 422 
Q 2950 422 3222 751 
Q 3494 1081 3494 1831 
L 3494 4666 
L 4128 4666 
L 4128 1753 
Q 4128 841 3676 375 
Q 3225 -91 2344 -91 
Q 1459 -91 1007 375 
Q 556 841 556 1753 
L 556 4666 
z
" transform="scale(0.015625)"/>
      <path id="DejaVuSans-64" d="M 2906 2969 
L 2906 4863 
L 3481 4863 
L 3481 0 
L 2906 0 
L 2906 525 
Q 2725 213 2448 61 
Q 2172 -91 1784 -91 
Q 1150 -91 751 415 
Q 353 922 353 1747 
Q 353 2572 751 3078 
Q 1150 3584 1784 3584 
Q 2172 3584 2448 3432 
Q 2725 3281 2906 2969 
z
M 947 1747 
Q 947 1113 1208 752 
Q 1469 391 1925 391 
Q 2381 391 2643 752 
Q 2906 1113 2906 1747 
Q 2906 2381 2643 2742 
Q 2381 3103 1925 3103 
Q 1469 3103 1208 2742 
Q 947 2381 947 1747 
z
" transform="scale(0.015625)"/>
      <path id="DejaVuSans-72" d="M 2631 2963 
Q 2534 3019 2420 3045 
Q 2306 3072 2169 3072 
Q 1681 3072 1420 2755 
Q 1159 2438 1159 1844 
L 1159 0 
L 581 0 
L 581 3500 
L 1159 3500 
L 1159 2956 
Q 1341 3275 1631 3429 
Q 1922 3584 2338 3584 
Q 2397 3584 2469 3576 
Q 2541 3569 2628 3553 
L 2631 2963 
z
" transform="scale(0.015625)"/>
      <path id="DejaVuSans-63" d="M 3122 3366 
L 3122 2828 
Q 2878 2963 2633 3030 
Q 2388 3097 2138 3097 
Q 1578 3097 1268 2742 
Q 959 2388 959 1747 
Q 959 1106 1268 751 
Q 1578 397 2138 397 
Q 2388 397 2633 464 
Q 2878 531 3122 666 
L 3122 134 
Q 2881 22 2623 -34 
Q 2366 -91 2075 -91 
Q 1284 -91 818 406 
Q 353 903 353 1747 
Q 353 2603 823 3093 
Q 1294 3584 2113 3584 
Q 2378 3584 2631 3529 
Q 2884 3475 3122 3366 
z
" transform="scale(0.015625)"/>
      <path id="DejaVuSans-3a" d="M 750 794 
L 1409 794 
L 1409 0 
L 750 0 
L 750 794 
z
M 750 3309 
L 1409 3309 
L 1409 2516 
L 750 2516 
L 750 3309 
z
" transform="scale(0.015625)"/>
      <path id="DejaVuSans-76" d="M 191 3500 
L 800 3500 
L 1894 563 
L 2988 3500 
L 3597 3500 
L 2284 0 
L 1503 0 
L 191 3500 
z
" transform="scale(0.015625)"/>
     </defs>
     <use xlink:href="#DejaVuSans-55"/>
     <use xlink:href="#DejaVuSans-6e" x="73.193359"/>
     <use xlink:href="#DejaVuSans-64" x="136.572266"/>
     <use xlink:href="#DejaVuSans-69" x="200.048828"/>
     <use xlink:href="#DejaVuSans-72" x="227.832031"/>
     <use xlink:href="#DejaVuSans-65" x="266.695312"/>
     <use xlink:href="#DejaVuSans-63" x="328.21875"/>
     <use xlink:href="#DejaVuSans-74" x="383.199219"/>
     <use xlink:href="#DejaVuSans-65" x="422.408203"/>
     <use xlink:href="#DejaVuSans-64" x="483.931641"/>
     <use xlink:href="#DejaVuSans-3a" x="547.408203"/>
     <use xlink:href="#DejaVuSans-20" x="581.099609"/>
     <use xlink:href="#DejaVuSans-52" x="612.886719"/>
     <use xlink:href="#DejaVuSans-75" x="677.869141"/>
     <use xlink:href="#DejaVuSans-6e" x="741.248047"/>
     <use xlink:href="#DejaVuSans-74" x="804.626953"/>
     <use xlink:href="#DejaVuSans-69" x="843.835938"/>
     <use xlink:href="#DejaVuSans-6d" x="871.619141"/>
     <use xlink:href="#DejaVuSans-65" x="969.03125"/>
     <use xlink:href="#DejaVuSans-20" x="1030.554688"/>
     <use xlink:href="#DejaVuSans-76" x="1062.341797"/>
     <use xlink:href="#DejaVuSans-73" x="1121.521484"/>
     <use xlink:href="#DejaVuSans-20" x="1173.621094"/>
     <use xlink:href="#DejaVuSans-6b" x="1205.408203"/>
    </g>
   </g>
   <g id="legend_1">
    <g id="patch_7">
     <path d="M 56.485185 92.8725 
L 116.210185 92.8725 
Q 118.210185 92.8725 118.210185 90.8725 
L 118.210185 33.16 
Q 118.210185 31.16 116.210185 31.16 
L 56.485185 31.16 
Q 54.485185 31.16 54.485185 33.16 
L 54.485185 90.8725 
Q 54.485185 92.8725 56.485185 92.8725 
z
" style="fill: #ffffff; opacity: 0.8; stroke: #cccccc; stroke-linejoin: miter"/>
    </g>
    <g id="text_14">
     <!-- Join -->
     <g transform="translate(77.255497 42.758437) scale(0.1 -0.1)">
      <defs>
       <path id="DejaVuSans-4a" d="M 628 4666 
L 1259 4666 
L 1259 325 
Q 1259 -519 939 -900 
Q 619 -1281 -91 -1281 
L -331 -1281 
L -331 -750 
L -134 -750 
Q 284 -750 456 -515 
Q 628 -281 628 325 
L 628 4666 
z
" transform="scale(0.015625)"/>
       <path id="DejaVuSans-6f" d="M 1959 3097 
Q 1497 3097 1228 2736 
Q 959 2375 959 1747 
Q 959 1119 1226 758 
Q 1494 397 1959 397 
Q 2419 397 2687 759 
Q 2956 1122 2956 1747 
Q 2956 2369 2687 2733 
Q 2419 3097 1959 3097 
z
M 1959 3584 
Q 2709 3584 3137 3096 
Q 3566 2609 3566 1747 
Q 3566 888 3137 398 
Q 2709 -91 1959 -91 
Q 1206 -91 779 398 
Q 353 888 353 1747 
Q 353 2609 779 3096 
Q 1206 3584 1959 3584 
z
" transform="scale(0.015625)"/>
      </defs>
      <use xlink:href="#DejaVuSans-4a"/>
      <use xlink:href="#DejaVuSans-6f" x="29.492188"/>
      <use xlink:href="#DejaVuSans-69" x="90.673828"/>
      <use xlink:href="#DejaVuSans-6e" x="118.457031"/>
     </g>
    </g>
    <g id="LineCollection_4">
     <path d="M 68.485185 58.936562 
L 68.485185 48.936562 
" style="fill: none; stroke: #1f77b4; stroke-width: 1.5"/>
    </g>
    <g id="line2d_55">
     <g>
      <use xlink:href="#m26ee2978d4" x="68.485185" y="58.936562" style="fill: #1f77b4; stroke: #1f77b4"/>
     </g>
    </g>
    <g id="line2d_56">
     <g>
      <use xlink:href="#m26ee2978d4" x="68.485185" y="48.936562" style="fill: #1f77b4; stroke: #1f77b4"/>
     </g>
    </g>
    <g id="line2d_57">
     <path d="M 58.485185 53.936562 
L 78.485185 53.936562 
" style="fill: none; stroke: #1f77b4; stroke-width: 1.5; stroke-linecap: square"/>
    </g>
    <g id="line2d_58">
     <g>
      <use xlink:href="#mc2e0f0b0f7" x="68.485185" y="53.936562" style="fill: #1f77b4; stroke: #1f77b4"/>
     </g>
    </g>
    <g id="text_15">
     <!-- Join 2 -->
     <g transform="translate(86.485185 57.436562) scale(0.1 -0.1)">
      <use xlink:href="#DejaVuSans-4a"/>
      <use xlink:href="#DejaVuSans-6f" x="29.492188"/>
      <use xlink:href="#DejaVuSans-69" x="90.673828"/>
      <use xlink:href="#DejaVuSans-6e" x="118.457031"/>
      <use xlink:href="#DejaVuSans-20" x="181.835938"/>
      <use xlink:href="#DejaVuSans-32" x="213.623047"/>
     </g>
    </g>
    <g id="LineCollection_5">
     <path d="M 68.485185 73.614688 
L 68.485185 63.614688 
" style="fill: none; stroke: #ff7f0e; stroke-width: 1.5"/>
    </g>
    <g id="line2d_59">
     <g>
      <use xlink:href="#me84821ca53" x="68.485185" y="73.614688" style="fill: #ff7f0e; stroke: #ff7f0e"/>
     </g>
    </g>
    <g id="line2d_60">
     <g>
      <use xlink:href="#me84821ca53" x="68.485185" y="63.614688" style="fill: #ff7f0e; stroke: #ff7f0e"/>
     </g>
    </g>
    <g id="line2d_61">
     <path d="M 58.485185 68.614688 
L 78.485185 68.614688 
" style="fill: none; stroke: #ff7f0e; stroke-width: 1.5; stroke-linecap: square"/>
    </g>
    <g id="line2d_62">
     <g>
      <use xlink:href="#m72c3dd43b5" x="68.485185" y="68.614688" style="fill: #ff7f0e; stroke: #ff7f0e"/>
     </g>
    </g>
    <g id="text_16">
     <!-- Join 3 -->
     <g transform="translate(86.485185 72.114688) scale(0.1 -0.1)">
      <use xlink:href="#DejaVuSans-4a"/>
      <use xlink:href="#DejaVuSans-6f" x="29.492188"/>
      <use xlink:href="#DejaVuSans-69" x="90.673828"/>
      <use xlink:href="#DejaVuSans-6e" x="118.457031"/>
      <use xlink:href="#DejaVuSans-20" x="181.835938"/>
      <use xlink:href="#DejaVuSans-33" x="213.623047"/>
     </g>
    </g>
    <g id="LineCollection_6">
     <path d="M 68.485185 88.292812 
L 68.485185 78.292812 
" style="fill: none; stroke: #2ca02c; stroke-width: 1.5"/>
    </g>
    <g id="line2d_63">
     <g>
      <use xlink:href="#m798885d53b" x="68.485185" y="88.292812" style="fill: #2ca02c; stroke: #2ca02c"/>
     </g>
    </g>
    <g id="line2d_64">
     <g>
      <use xlink:href="#m798885d53b" x="68.485185" y="78.292812" style="fill: #2ca02c; stroke: #2ca02c"/>
     </g>
    </g>
    <g id="line2d_65">
     <path d="M 58.485185 83.292812 
L 78.485185 83.292812 
" style="fill: none; stroke: #2ca02c; stroke-width: 1.5; stroke-linecap: square"/>
    </g>
    <g id="line2d_66">
     <g>
      <use xlink:href="#m46672bdf05" x="68.485185" y="83.292812" style="fill: #2ca02c; stroke: #2ca02c"/>
     </g>
    </g>
    <g id="text_17">
     <!-- Join 4 -->
     <g transform="translate(86.485185 86.792812) scale(0.1 -0.1)">
      <use xlink:href="#DejaVuSans-4a"/>
      <use xlink:href="#DejaVuSans-6f" x="29.492188"/>
      <use xlink:href="#DejaVuSans-69" x="90.673828"/>
      <use xlink:href="#DejaVuSans-6e" x="118.457031"/>
      <use xlink:href="#DejaVuSans-20" x="181.835938"/>
      <use xlink:href="#DejaVuSans-34" x="213.623047"/>
     </g>
    </g>
   </g>
  </g>
 </g>
 <defs>
  <clipPath id="pd0b98dcdc3">
   <rect x="49.485185" y="26.16" width="515.714815" height="363.88"/>
  </clipPath>
 </defs>
</svg>
